<svg xmlns="http://www.w3.org/2000/svg" width="20" height="20" viewBox="0 0 20 20">
  <metadata><?xpacket begin="﻿" id="W5M0MpCehiHzreSzNTczkc9d"?>
<x:xmpmeta xmlns:x="adobe:ns:meta/" x:xmptk="Adobe XMP Core 5.6-c138 79.159824, 2016/09/14-01:09:01        ">
   <rdf:RDF xmlns:rdf="http://www.w3.org/1999/02/22-rdf-syntax-ns#">
      <rdf:Description rdf:about=""/>
   </rdf:RDF>
</x:xmpmeta>
                                                                                                    
                                                                                                    
                                                                                                    
                                                                                                    
                                                                                                    
                                                                                                    
                                                                                                    
                                                                                                    
                                                                                                    
                                                                                                    
                                                                                                    
                                                                                                    
                                                                                                    
                                                                                                    
                                                                                                    
                                                                                                    
                                                                                                    
                                                                                                    
                                                                                                    
                                                                                                    
                           
<?xpacket end="w"?></metadata>
<defs>
    <style>
      .cls-1 {
        fill: #fff;
        fill-rule: evenodd;
      }
    </style>
  </defs>
  <path class="cls-1" d="M1336.46,1385.91a8.41,8.41,0,0,0,4.89-1.57l4.24,4.25a1.424,1.424,0,0,0,1,.41,1.442,1.442,0,0,0,1-.41,1.418,1.418,0,0,0,0-2l-4.24-4.25a8.34,8.34,0,0,0,1.57-4.89A8.46,8.46,0,1,0,1336.46,1385.91Zm0-14.09a5.644,5.644,0,0,1,5.64,5.63,5.557,5.557,0,0,1-1.05,3.26l-0.55.78-0.78.56A5.636,5.636,0,1,1,1336.46,1371.82Zm-3.45,5.81a3.613,3.613,0,0,1,3.62-3.59,0.459,0.459,0,0,0,.46-0.46,0.45,0.45,0,0,0-.46-0.45,4.52,4.52,0,0,0-4.53,4.5,0.459,0.459,0,0,0,.46.46A0.45,0.45,0,0,0,1333.01,1377.63Z" transform="translate(-1328 -1369)"/>
</svg>
