<?xml version="1.0" standalone="no"?>
<!DOCTYPE svg PUBLIC "-//W3C//DTD SVG 1.1//EN" "http://www.w3.org/Graphics/SVG/1.1/DTD/svg11.dtd" >
<svg xmlns="http://www.w3.org/2000/svg">
<metadata>Generated by IcoMoon</metadata>
<defs>
<font id="rt_font" horiz-adv-x="1024">
<font-face units-per-em="1024" ascent="960" descent="-64" />
<missing-glyph horiz-adv-x="1024" />
<glyph unicode="&#x20;" horiz-adv-x="512" d="" />
<glyph unicode="&#xe001;" glyph-name="Friends" d="M745.77 125.038l-201.274 111.49c74.806 58.854 95.122 174.516 95.122 239.364v134.987c0 89.384-118.763 188.934-238.054 188.934-119.259 0-241.171-99.566-241.171-188.934v-134.987c0-58.966 24.951-178.257 100.525-238.853l-206.469-112.002c0 0-53.947-24.040-53.947-54.011v-81.008c0-29.811 24.2-54.011 53.947-54.011h691.319c29.779 0 53.979 24.2 53.979 54.011v81.008c0 31.777-53.979 54.011-53.979 54.011zM735.812-0.055h-671.371v57.16c4.587 3.341 10.997 7.209 16.048 9.527 1.503 0.687 3.005 1.407 4.428 2.222l206.485 111.986c18.829 10.214 31.313 29.155 33.215 50.478s-7.001 42.214-23.689 55.609c-53.611 42.982-76.581 138.184-76.581 188.966v134.987c0 45.923 86.571 124.997 177.234 124.997 92.341 0 174.117-77.987 174.117-124.997v-134.987c0-50.079-15.553-145.697-70.714-189.094-16.895-13.299-25.974-34.19-24.2-55.609 1.806-21.419 14.242-40.488 33.087-50.798l201.274-111.49c1.774-0.975 4.028-2.030 5.898-2.845 4.715-1.998 10.518-5.339 14.769-8.28v-57.831zM969.518 284.225l-204.263 111.49c74.806 58.854 98.127 174.516 98.127 239.364v134.987c0 89.384-121.752 189.941-241.043 189.941-77.524 0-156.79-42.151-202.92-96.129 26.31-1.63 55.322-1.662 80.385-9.654 33.679 26.23 76.293 41.831 122.535 41.831 92.341 0 177.106-78.978 177.106-126.004v-134.987c0-50.079-18.542-145.697-73.703-189.094-16.895-13.299-25.974-34.19-24.2-55.609 1.806-21.419 14.242-40.488 33.087-50.798l204.263-111.49c1.774-0.975 4.028-2.030 5.898-2.845 4.715-1.998 10.518-5.339 14.769-8.28v-56.856h-129.057c19.485-14.706 25.383-35.741 32.944-63.937h106.088c29.779 0 53.979 24.2 53.979 54.011v80.017c-0.016 31.809-53.995 54.043-53.995 54.043z" />
<glyph unicode="&#xe002;" glyph-name="Add_Friend" d="M64.064 65.312c0 25.44 19.088 33.408 26.72 36.944l281.040 132.624c20.144 9.248 34.048 28.32 36.752 50.32 2.72 22-6.16 43.84-23.456 57.712-66.48 53.376-97.456 170.688-97.456 233.184v159.904c0 66.864 116.4 159.856 224.128 159.856 108.672 0 223.92-91.536 223.92-159.856v-159.92c0-61.552-25.6-179.312-94.256-233.36-17.504-13.776-26.592-35.68-23.968-57.808 2.624-22.16 16.592-41.312 36.848-50.624l95.92-45.504 15.808 63.872-85.008 39.776c88.656 69.776 118.656 206.832 118.656 283.648v159.92c0 105.92-146.624 223.856-287.92 223.856-141.312 0-288.128-117.936-288.128-223.856v-159.92c0-69.872 31.888-211.248 121.392-283.088l-281.040-132.624c0 0-63.952-28.496-63.952-63.968v-96.032c0-35.344 28.64-63.968 63.952-63.968h703.92v64l-703.872-0.032v64.944zM991.936 128.128h-96v96c0 17.68-14.336 32-32 32s-32-14.32-32-32v-96h-96c-17.664 0-32-14.32-32-32 0-17.664 14.336-32 32-32h96v-96c0-17.664 14.336-32 32-32s32 14.336 32 32v96h96c17.664 0 32 14.336 32 32 0 17.68-14.32 32-32 32z" />
<glyph unicode="&#xe003;" glyph-name="Friended" d="M63.504 0.24v64.944c0 25.44 19.104 33.424 26.72 36.944l281.040 132.624c20.144 9.248 34.048 28.32 36.752 50.32 2.72 22-6.16 43.84-23.456 57.712-66.48 53.376-97.456 170.704-97.456 233.184v159.92c0 66.864 116.4 159.856 224.128 159.856 108.672 0 223.936-91.536 223.936-159.856v-159.92c0-61.552-25.6-179.312-94.256-233.376-17.504-13.776-26.592-35.68-23.968-57.808 2.624-22.16 16.592-41.312 36.848-50.624l162.24-77.248 38.144 54.064-173.664 81.344c88.656 69.776 118.656 206.848 118.656 283.664v159.92c0 105.92-146.624 223.856-287.936 223.856s-288.128-117.936-288.128-223.856v-159.92c0-69.872 31.888-211.248 121.392-283.088l-281.040-132.656c0 0-63.952-28.496-63.952-63.968v-96.032c0-35.344 28.64-63.968 63.952-63.968h639.712l-52 63.984-587.664-0.016zM1012.208 236.496c-13.904 10.912-34.032 8.432-44.912-5.472l-136.848-208.704-85.056 85.072c-12.496 12.496-32.768 12.496-45.264 0s-12.496-32.752 0-45.248l113.136-113.136c12.496-12.496 32.752-12.496 45.248 0 3.040 3.024 5.312 6.544 6.88 10.288l152.304 232.304c10.88 13.904 8.432 34.016-5.488 44.896z" />
<glyph unicode="&#xe050;" glyph-name="Reply" d="M990.064 17.664c-0.336 0-0.72 0-1.088 0.032-16.192 0.528-26.4 13.088-27.776 29.216-1.088 11.872-33.968 299.088-482.256 298.784v-183.664c0-12.368-7.12-23.664-18.336-28.944-11.088-5.312-24.432-3.68-33.968 4.224l-414.976 343.776c-7.44 6.096-11.712 15.184-11.68 24.784s4.336 18.688 11.776 24.752l414.96 340.56c9.568 7.808 22.784 9.312 33.936 4.096 11.152-5.312 18.288-16.56 18.288-28.912v-179.632c185.968-5.904 330.992-65.712 424.336-174.976 151.936-177.776 118.032-436.16 116.432-446.912-2.368-15.664-13.872-27.184-29.648-27.184zM446.944 410.192c0.032 0 0.064 0 0.064 0 320.224-0.192 442.592-108.32 512.464-203.808-10.224 76.496-40.064 168.72-105.008 244.032-86.336 100.096-225.44 152.848-407.536 152.848-17.68 0-32 14.32-32 32v143.776l-332.432-273.36 332.432-275.904v148.4c0 8.496 3.376 16.656 9.408 22.656 6 5.984 14.128 9.36 22.608 9.36z" />
<glyph unicode="&#xe06c;" glyph-name="Filter" d="M160.048 572.128v355.872c0 17.664-14.336 32-32 32s-32-14.336-32-32v-355.84c-55.328-14.256-96.4-64.448-96.4-124.16 0-59.728 41.072-109.904 96.4-124.176v-355.824c0-17.664 14.336-32 32-32s32 14.336 32 32v355.856c55.28 14.304 96.304 64.448 96.304 124.144 0 59.68-41.024 109.84-96.304 124.128zM128.416 383.968c-0.112 0-0.24 0.032-0.368 0.032-0.144 0-0.272-0.032-0.416-0.048-35.152 0.208-63.696 28.848-63.696 64.048 0 35.184 28.56 63.84 63.712 64.032 0.128 0 0.272-0.032 0.4-0.032s0.24 0.032 0.368 0.032c35.136-0.224 63.664-28.864 63.664-64.032 0-35.184-28.528-63.808-63.664-64.032zM544.064 380.128v547.872c0 17.664-14.336 32-32 32s-32-14.336-32-32v-547.84c-55.328-14.272-96.4-64.432-96.4-124.16s41.072-109.904 96.4-124.176v-163.824c0-17.664 14.336-32 32-32s32 14.336 32 32v163.856c55.264 14.304 96.288 64.448 96.288 124.144-0.016 59.664-41.024 109.824-96.288 124.128zM512.416 191.968c-0.128 0-0.24 0.032-0.368 0.032-0.144 0-0.272-0.032-0.416-0.048-35.152 0.208-63.696 28.848-63.696 64.048 0 35.216 28.608 63.872 63.792 64.032 0.112 0 0.224-0.032 0.336-0.032 0.096 0 0.192 0.032 0.288 0.032 35.168-0.192 63.744-28.832 63.744-64.032 0-35.184-28.528-63.808-63.68-64.032zM928.064 764.128v163.872c0 17.664-14.336 32-32 32-17.68 0-32-14.336-32-32v-163.84c-55.328-14.256-96.4-64.432-96.4-124.16s41.072-109.92 96.4-124.176v-547.824c0-17.664 14.32-32 32-32 17.664 0 32 14.336 32 32v547.856c55.264 14.304 96.288 64.448 96.288 124.144-0.016 59.664-41.024 109.824-96.288 124.128zM896.416 575.968c-0.128 0-0.24 0.032-0.352 0.032-0.144 0-0.288-0.032-0.416-0.032-35.152 0.192-63.712 28.832-63.712 64.032 0 35.184 28.56 63.84 63.696 64.032 0.144 0 0.288-0.032 0.416-0.032s0.24 0.032 0.352 0.032c35.136-0.24 63.664-28.864 63.664-64.032 0.032-35.184-28.496-63.808-63.648-64.032z" />
<glyph unicode="&#xe07c;" glyph-name="Error" d="M512 960c-282.768 0-512-229.232-512-512 0-282.784 229.232-512 512-512 282.784 0 512 229.216 512 512 0 282.768-229.216 512-512 512zM64 448c0 112.272 41.616 214.96 110.096 293.664l631.856-631.856c-78.736-68.88-181.536-110.816-293.952-110.816-247.024 0-448 201.984-448 449.008zM851.024 155.216l-631.616 631.616c78.576 67.936 180.832 109.168 292.592 109.168 247.024 0 448-200.976 448-448 0-111.664-41.152-214.032-108.976-292.784z" />
<glyph unicode="&#xe086;" glyph-name="Menu_User_Messages" d="M1023.456 728c0.992 6.144 0.176 12.48-2.48 18.272-8.064 35.44-33.68 53.728-76.976 53.728h-832c-38.080 0-79.104-14-99.28-41.472-1.744-1.328-3.408-2.832-4.912-4.576-6.448-7.44-8.704-17.008-7.264-26.032-0.288-2.592-0.544-5.2-0.544-7.92v-512c0-53.024 58.992-112 112-112h832c53.024 0 80 58.976 80 112v512c0 2.832-0.368 5.312-0.544 8zM112 736h832c0.192 0 0.288 0 0.432 0l-432.432-344.656-430.688 343.248c9.792 1.808 21.84 1.408 30.688 1.408zM944 160h-832c-17.648 0-48 30.336-48 48v458.448l427.040-341.648c6.016-5.2 13.488-7.792 20.96-7.792s14.944 2.592 20.976 7.792l427.024 341.632v-458.432c0-17.664 1.664-48-16-48z" />
<glyph unicode="&#xe089;" glyph-name="Folder" d="M354.752 784l78.624-77.248 20.112-18.752h506.512v-576h-896v672h288M384 848h-320c-35.344 0-64-28.656-64-64v-672c0-35.344 28.656-64 64-64h896c35.344 0 64 28.656 64 64v576c0 35.344-28.656 64-64 64h-480l-96 96z" />
<glyph unicode="&#xe08b;" glyph-name="Information" d="M576 224h-32v286c0 0.336-0.096 0.656-0.096 1.008s0.096 0.656 0.096 0.992c0 17.664-14.336 32-32 32h-64c-17.664 0-32-14.336-32-32s14.336-32 32-32h32v-256h-32c-17.664 0-32-14.336-32-32s14.336-32 32-32h128c17.664 0 32 14.336 32 32s-14.336 32-32 32zM512 608c35.344 0 64 28.656 64 64s-28.656 64-64 64-64-28.656-64-64 28.656-64 64-64zM512 960c-282.768 0-512-229.232-512-512 0-282.784 229.232-512 512-512 282.784 0 512 229.216 512 512 0 282.768-229.216 512-512 512zM512-1.008c-247.024 0-448 201.984-448 449.008s200.976 448 448 448 448-200.976 448-448-200.976-449.008-448-449.008z" />
<glyph unicode="&#xe08d;" glyph-name="link" d="M295.664 227.552c6.256-6.256 14.432-9.376 22.624-9.376s16.368 3.12 22.624 9.376l387.664 390.688c12.496 12.496 12.496 32.752 0 45.248s-32.752 12.496-45.248 0l-387.664-390.688c-12.512-12.496-12.512-32.752 0-45.248zM475.872 295.696c10.576-46.624-0.832-92.4-36.864-128.432l-129.248-125.248c-27.2-27.184-63.36-42.16-101.824-42.16s-74.624 14.976-101.808 42.16c-56.144 56.16-56.144 147.536-0.336 203.344l126.256 130.256c27.2 27.184 63.36 42.176 101.824 42.176 13.152 0 25.824-2.352 38.176-5.744l49.952 49.952c-27.872 13.024-57.952 19.792-88.128 19.792-53.232 0-106.464-20.32-147.072-60.928l-125.936-129.936c-81.216-81.216-81.216-212.912 0-294.16 40.608-40.624 93.84-60.912 147.072-60.912s106.464 20.288 147.072 60.912l128.944 124.944c62.128 62.128 75.568 148.72 42.656 224.72l-50.736-50.736zM963.136 899.216c-40.624 40.608-93.84 60.928-147.056 60.928-53.248 0-106.496-20.32-147.088-60.928l-128.928-124.944c-64.4-64.4-77.536-160.464-39.792-238.032l49.664 49.648c-14.704 49.104-3.408 104.336 35.056 142.832l129.248 125.248c27.216 27.184 63.344 42.176 101.84 42.176 38.432 0 74.624-14.992 101.808-42.176 56.128-56.16 56.128-147.536 0.32-203.344l-129.248-129.248c-27.184-27.184-63.376-42.16-101.808-42.16-9.808 0-18.432-0.992-27.84 0.928l-50.976-51.008c25.472-10.592 51.632-13.936 78.816-13.936 53.216 0 106.432 20.304 147.056 60.928l128.944 128.944c81.2 81.216 81.2 212.896-0.016 294.144z" />
<glyph unicode="&#xe093;" glyph-name="Clip" d="M179.53-37.683c-42.537 0-83.38 17.607-115.929 50.188-72.17 72.405-72.17 190.169-0.016 262.526l562.745 597.583c87.801 87.943 222.294 80.040 320.444-18.234 43.979-44.058 68.658-107.572 67.733-174.333-0.925-66.055-26.732-129.272-70.837-173.455l-425.304-452.773c-11.838-12.684-31.687-13.264-44.324-1.364-12.606 11.916-13.217 31.797-1.333 44.434l425.947 453.463c33.318 33.38 52.43 80.73 53.136 130.573 0.706 49.874-17.309 96.895-49.357 129.021-60.207 60.332-158.231 91.925-231.106 18.877l-562.729-597.583c-48.385-48.51-48.369-126.418-0.627-174.286 22.389-22.405 48.965-33.318 77.265-31.609 28.002 1.709 56.789 16.071 81.060 40.404l447.756 476.574c16.228 16.259 48.84 56.115 15.647 89.385-18.799 18.83-32 17.67-36.344 17.309-12.402-1.098-26.889-9.674-41.925-24.757l-337.016-358.434c-11.9-12.653-31.765-13.264-44.324-1.333-12.621 11.885-13.202 31.797-1.333 44.402l337.628 359.108c26.544 26.67 53.684 41.126 81.31 43.603 21.558 1.913 53.622-2.681 86.328-35.481 48.542-48.636 42.505-119.974-14.973-177.578l-447.756-476.542c-35.748-35.873-78.912-56.71-122.216-59.376-3.183-0.22-6.366-0.314-9.548-0.314z" />
<glyph unicode="&#xe098;" glyph-name="Refresh" d="M497.467 63.010c-0.080 0.191-0.271 0.319-0.382 0.478l-91.547 143.081c-6.501 10.676-20.604 14.469-31.599 8.477l-8.159-5.020c-10.963-5.976-10.724-21.449-4.239-32.125l58.689-91.037c-5.004 1.1-10.055 1.992-14.995 3.283-102.765 26.882-189.722 96.439-238.563 190.822-46.148 89.156-54.816 190.917-24.412 286.575 30.388 95.658 99.371 173.755 188.527 219.887 15.186 7.856 21.114 26.532 13.258 41.686-7.84 15.202-26.532 21.146-41.686 13.274-103.848-53.733-183.651-144.69-219.075-256.108-35.408-111.402-25.321-229.942 28.428-333.775 56.904-109.888 158.187-190.886 277.891-222.23 1.354-0.351 2.773-0.558 4.143-0.908l-80.982-41.065c-10.963-6.008-14.596-19.552-8.095-30.229l3.139-8.143c6.533-10.676 17.768-14.469 28.699-8.477l148.228 75.898c0.191 0.127 0.382 0.096 0.574 0.223l9.943 5.434c5.498 3.012 9.131 7.936 10.581 13.449 1.514 5.498 0.813 11.617-2.438 16.923l-5.928 9.625zM912.272 638.408c-56.824 109.856-154.952 190.854-274.64 222.214-8.525 2.231-17.242 3.968-25.942 5.689l79.5 40.316c10.963 6.008 17.497 19.552 10.995 30.245l-3.139 8.127c-6.533 10.692-20.668 14.469-31.599 8.493l-148.212-75.898c-0.175-0.112-0.382-0.080-0.574-0.207l-9.928-5.45c-5.514-3.028-9.131-7.936-10.581-13.449-1.514-5.498-0.813-11.601 2.454-16.907l5.896-9.673c0.096-0.191 0.271-0.303 0.382-0.494l91.547-143.065c6.486-10.692 20.604-14.469 31.583-8.477l7.187 5.004c10.963 5.976 11.68 21.449 5.211 32.109l-58.96 91.483c12.955-1.992 25.863-4.398 38.467-7.728 102.813-26.93 186.631-96.471 235.44-190.79 46.132-89.156 54.801-190.917 24.381-286.559-30.388-95.658-96.263-173.739-185.42-219.919-15.17-7.856-21.082-26.5-13.226-41.702 5.498-10.597 16.27-16.7 27.488-16.7 4.781 0 9.625 1.115 14.214 3.474 103.848 53.717 180.512 144.69 215.935 256.076 35.392 111.45 25.289 229.99-28.46 333.791z" />
<glyph unicode="&#xe900;" glyph-name="circle_close" d="M516.676 957.662c-280.548 4.676-509.662-219.763-514.338-500.311s219.763-509.662 500.311-514.338c280.548-4.676 509.662 219.763 514.338 500.311v4.676c4.676 280.548-219.763 509.662-500.311 509.662zM516.676 3.799c-243.142 0-453.553 205.735-453.553 448.877s210.411 444.201 453.553 444.201 439.525-201.060 439.525-444.201c0-247.817-196.383-448.877-439.525-448.877zM563.434 452.676l130.922 130.922c14.028 14.028 14.028 32.731 0 46.758-9.351 14.028-28.054 14.028-42.082 0l-135.598-135.598-130.922 135.598c-14.028 9.351-32.731 9.351-46.758 0-9.351-14.028-9.351-32.731 0-46.758l135.598-135.598-130.922-130.922c-14.028-14.028-14.028-32.731 0-46.758 9.351-14.028 28.054-14.028 42.082 0l130.922 135.598 135.598-135.598c9.351-14.028 28.054-14.028 42.082 0s14.028 32.731 0 46.758l-130.922 135.598z" />
<glyph unicode="&#xe901;" glyph-name="header_Menu" d="M55.389 504.63h913.067c30.836-0.743 55.55-25.917 55.55-56.863s-24.714-56.12-55.481-56.862l-913.136-0.001c-30.836 0.743-55.55 25.917-55.55 56.863s24.714 56.12 55.481 56.862zM55.389 49.571h913.067c30.836-0.743 55.55-25.917 55.55-56.863s-24.714-56.12-55.481-56.862l-913.136-0.001c-30.836 0.743-55.55 25.917-55.55 56.863s24.714 56.12 55.481 56.862zM55.389 959.845h913.067c30.879-0.744 55.627-25.952 55.627-56.941s-24.748-56.197-55.558-56.939l-913.136-0.001c-30.879 0.744-55.627 25.952-55.627 56.941s24.748 56.197 55.558 56.939z" />
<glyph unicode="&#xe902;" glyph-name="header_Search" d="M1014.606-7.633l-310.018 310.018c61.064 70.459 93.945 159.706 93.945 258.349 0 220.771-178.495 399.266-399.266 399.266s-399.266-178.495-399.266-399.266c0 0 0 0 0 0 0-220.771 178.495-399.266 399.266-399.266 98.642 0 187.89 37.578 258.349 98.642l310.018-310.018c0 0 0 0 0 0 14.092-14.092 32.881-14.092 46.972 0 9.394 9.394 9.394 28.183 0 42.275zM399.266 222.532c-187.89 0-338.202 150.312-338.202 333.505 0 0 0 0 0 0 0 183.193 150.312 338.202 333.505 338.202 187.89 0 338.202-150.312 338.202-333.505 4.697-183.193-145.615-338.202-333.505-338.202z" />
<glyph unicode="&#xe903;" glyph-name="Menu_Community_Community" d="M968.145 308.364l-167.564 93.091c65.164 46.545 83.782 144.291 83.782 195.491v111.709c0 74.473-97.745 158.255-195.491 158.255-65.164 0-125.673-32.582-162.909-79.127 23.273 0 41.891-4.655 65.164-9.309 27.927 23.273 65.164 32.582 97.745 32.582 74.473 0 144.291-65.164 144.291-102.4v-111.709c0-41.891-13.964-121.018-60.509-158.255-23.273-18.618-27.927-51.2-9.309-74.473 4.655-4.655 9.309-9.309 13.964-13.964l167.564-93.091c0 0 4.655 0 4.655 0 4.655 0 9.309-4.655 13.964-4.655v-46.545h-107.055c13.964-13.964 18.618-27.927 27.927-51.2h88.436c23.273 0 41.891 18.618 41.891 46.545v65.164c0 23.273-46.545 41.891-46.545 41.891v0zM786.618 178.036l-162.909 93.091c60.509 46.545 79.127 144.291 79.127 195.491v111.709c0 74.473-97.745 153.6-195.491 153.6v0c-97.745 0-195.491-83.782-195.491-153.6v-111.709c0-46.545 18.618-148.945 83.782-195.491l-167.564-93.091c0 0-41.891-18.618-41.891-46.545v-65.164c0-23.273 18.618-46.545 41.891-46.545h563.2c23.273 0 41.891 18.618 41.891 46.545v65.164c0 27.927-46.545 46.545-46.545 46.545zM781.964 75.636h-549.236v46.545c4.655 4.655 9.309 4.655 13.964 4.655 0 0 4.655 0 4.655 0l162.909 93.091c13.964 9.309 23.273 23.273 27.927 41.891 0 18.618-4.655 32.582-18.618 46.545-46.545 37.236-55.855 116.364-55.855 153.6v116.364c0 37.236 65.164 102.4 139.636 102.4v0c69.818 0 144.291-65.164 144.291-102.4v-111.709c0-41.891-18.618-121.018-60.509-153.6-4.655-4.655-9.309-9.309-13.964-13.964-13.964-27.927-4.655-55.855 18.618-74.473l167.564-93.091c0 0 4.655 0 4.655 0 4.655 0 9.309-4.655 13.964-9.309v-46.545zM41.891 308.364l167.564 93.091c-60.509 46.545-79.127 144.291-79.127 195.491v111.709c0 74.473 97.745 158.255 195.491 158.255 65.164 0 125.673-32.582 162.909-79.127-23.273 0-41.891-4.655-65.164-9.309-27.927 23.273-60.509 37.236-97.745 37.236-74.473 0-144.291-65.164-144.291-102.4v-111.709c0-41.891 13.964-121.018 60.509-153.6 23.273-18.618 27.927-51.2 9.309-74.473-4.655-9.309-9.309-13.964-18.618-18.618l-167.564-93.091c0 0-4.655 0-4.655 0-4.655 0-9.309-4.655-13.964-4.655v-46.545h107.055c-13.964-13.964-18.618-27.927-27.927-51.2h-83.782c-23.273 0-41.891 18.618-41.891 46.545v65.164c0 18.618 41.891 37.236 41.891 37.236v0z" />
<glyph unicode="&#xe904;" glyph-name="Menu_Community_Member" d="M512 960c0 0 0 0 0 0-281.835 0-512-230.165-512-512s230.165-512 512-512c281.835 0 512 230.165 512 512s-230.165 512-512 512zM239.56 95.706l164.404 89.248c32.881 18.789 42.275 56.367 23.486 89.248-4.697 9.394-9.394 14.092-14.092 18.789-51.67 42.275-75.156 136.22-75.156 187.89v131.523c0 46.972 84.55 126.826 178.495 126.826v0c93.945 0 173.798-79.853 173.798-126.826v-136.22c0-51.67-14.092-145.615-70.459-187.89-28.183-23.486-32.881-61.064-9.394-89.248 4.697-4.697 14.092-14.092 18.789-18.789l159.706-89.248c-75.156-56.367-169.101-93.945-272.44-93.945-108.037 4.697-201.982 37.578-277.138 98.642zM836.11 137.982l-178.495 98.642c75.156 61.064 93.945 173.798 93.945 239.56v136.22c0 89.248-117.431 187.89-239.56 187.89-117.431 0-239.56-98.642-239.56-187.89v-136.22c0-61.064 23.486-178.495 98.642-239.56l-183.193-98.642c-75.156 79.853-122.128 187.89-122.128 310.018 0 0 0 0 0 0 0 248.954 201.982 446.239 446.239 446.239 248.954 0 446.239-201.982 450.936-446.239-4.697-122.128-51.67-230.165-126.826-310.018z" />
<glyph unicode="&#xe905;" glyph-name="Menu_Login" d="M511.765 895.796c108.712 0 223.937-91.653 223.937-160.044v-159.889c0-61.567-25.588-179.429-94.134-233.552-14.96-11.83-24.473-29.979-24.473-50.351 0-25.685 15.123-47.839 36.951-58.041l278.919-132.294c15.621-4.021 26.977-17.981 26.977-34.594 0-1.637-0.11-3.248-0.324-4.826l0.020-62.314-895.593-0.155v64.979c0 0.068-0.001 0.149-0.001 0.229 0 17.087 11.054 31.593 26.401 36.755l281.435 132.674c22.158 10.405 37.227 32.534 37.227 58.182 0 20.116-9.269 38.068-23.77 49.816-66.65 53.597-97.666 170.838-97.666 233.491v159.889c0 66.995 116.466 160.044 224.092 160.044zM511.765 959.845c-141.279 0-287.985-118.017-287.985-224.092v-159.889c0-69.942 31.792-211.375 121.273-283.333l-281.007-132.594s-63.893-28.535-63.893-64.048v-96.15c0-0.028 0-0.060 0-0.093 0-35.236 28.564-63.8 63.8-63.8 0.033 0 0.065 0 0.098 0h895.588c0.028 0 0.060 0 0.093 0 35.236 0 63.8 28.564 63.8 63.8 0 0.033 0 0.065 0 0.098v96.145c0 37.53-63.893 64.048-63.893 64.048l-278.526 132.129c88.706 69.786 118.637 206.878 118.637 283.798v159.889c0 106.075-146.552 224.092-287.985 224.092v0z" />
<glyph unicode="&#xe906;" glyph-name="Menu_Categories" d="M512.623 395.559c-5.593 0.018-10.833 1.512-15.356 4.114l-474.925 258.869c-9.979 5.586-16.614 16.091-16.614 28.146 0 12.425 7.049 23.204 17.367 28.555l480.22 241.501c4.193 2.201 9.16 3.492 14.429 3.492s10.236-1.291 14.603-3.575l474.902-241.489c10.408-5.463 17.385-16.196 17.385-28.558 0-12.115-6.701-22.665-16.6-28.144l-480.206-259.033c-4.398-2.409-9.63-3.841-15.193-3.879zM106.745 685.538l406.033-221.402 410.843 221.713-406.033 206.508zM1001.663 479.806l-94.953 48.252-68.577-36.926 80.059-40.65-410.843-221.713-406.189 221.402 85.334 42.822-68.422 37.392-100.228-50.424c-10.572-5.377-17.688-16.175-17.688-28.635 0-12.091 6.701-22.617 16.592-28.067l475.086-259.188c4.416-2.442 9.681-3.88 15.282-3.88s10.867 1.437 15.448 3.963l479.876 258.865c10.059 5.549 16.76 16.086 16.76 28.189 0 12.411-7.046 23.176-17.357 28.513zM1001.663 255.611l-89.988 44.218-68.577-36.926 75.094-36.771-410.843-221.713-406.189 221.557 79.283 35.84-68.422 37.237-94.177-43.443c-10.566-5.345-17.684-16.12-17.684-28.557 0-12.068 6.702-22.571 16.587-27.991l475.087-259.188c4.416-2.442 9.681-3.88 15.282-3.88s10.867 1.437 15.448 3.963l479.876 258.865c10.056 5.517 16.759 16.033 16.759 28.115 0 0.152-0.001 0.305-0.003 0.456-0.196 12.231-7.183 22.809-17.354 28.13z" />
<glyph unicode="&#xe907;" glyph-name="Menu_Channels" d="M949.527 806.4v-530.618h-884.364v530.618h884.364zM949.527 866.909h-884.364c-37.236 0-65.164-27.927-65.164-60.509v-530.618c0-32.582 27.927-60.509 65.164-60.509h889.018c32.582 0 65.164 27.927 65.164 60.509v530.618c-4.655 32.582-32.582 60.509-69.818 60.509v0zM539.927 210.618v-93.091h158.255c18.618 0 32.582-13.964 32.582-32.582s-13.964-32.582-32.582-32.582h-381.673c-18.618 0-32.582 13.964-32.582 32.582s13.964 32.582 32.582 32.582h158.255v93.091h65.164z" />
<glyph unicode="&#xe908;" glyph-name="Menu_Galleries" d="M799.571 623.585c0.131-36.153-29.071-65.567-65.224-65.698s-65.567 29.071-65.698 65.224c-0.131 36.153 29.071 65.567 65.224 65.698s65.567-29.071 65.698-65.224zM953.863 880.512h-888.402c-37.406 0-65.462-28.055-65.462-65.462v-734.1c0-37.406 28.055-65.462 65.462-65.462h893.077c37.406 0 65.462 28.055 65.462 65.462v734.1c-4.676 37.406-32.731 65.462-70.137 65.462zM953.863 815.050v-584.474l-187.032 191.707c-9.352 9.352-28.055 14.028-42.082 4.676l-116.895-107.544-266.52 261.845c-4.676 9.352-14.028 14.028-23.379 14.028s-18.703-4.676-23.379-9.352l-233.79-229.114v458.228h893.077zM65.463 80.951v187.032l257.169 247.817 261.845-266.52c14.028-14.028 32.731-14.028 42.082 0l116.895 107.544 210.411-215.087c0 0 0 0 4.676 0v-60.785h-893.077z" />
<glyph unicode="&#xe909;" glyph-name="Menu_Star" d="M512 896.078l137.309-294.012 312.32-47.787-226.211-233.038 7.602-46.701 45.304-278.497-276.48 153.29-276.17-153.445 45.149 278.652 7.602 46.701-32.582 33.513-193.474 199.525 312.32 47.787 20.48 43.908 116.829 250.104zM512 960c-29.505-0.086-54.95-17.381-66.833-42.373l-115.935-248.537-266.395-40.96c-35.768-5.872-62.724-36.558-62.724-73.54 0-20.152 8.004-38.434 21.006-51.841l195.162-201.213-45.304-279.118c-0.604-3.57-0.949-7.682-0.949-11.875 0-25.014 12.278-47.16 31.137-60.74 12.051-8.689 26.84-13.805 42.825-13.805 13.13 0 25.453 3.452 36.112 9.499l231.898 128.896 232.262-129.086c10.295-5.857 22.619-9.309 35.749-9.309 15.984 0 30.774 5.117 42.819 13.802 18.796 13.522 31.031 35.58 31.031 60.496 0 4.281-0.361 8.477-1.055 12.561l-45.243 278.678 195.336 201.232c12.984 13.388 20.988 31.671 20.988 51.822 0 36.982-26.956 67.668-62.292 73.481l-266.827 41.019-115.898 248.087c-11.979 25.457-37.397 42.774-66.864 42.822h-0.006z" />
<glyph unicode="&#xe90a;" glyph-name="Menu_Tags" d="M944.147 960v0h-342.899c-23.486 0-56.367 0-75.156-23.486l-507.303-502.606c-23.486-23.486-23.486-65.761 0-89.248l385.174-385.174c23.486-23.486 65.761-23.486 89.248 0 0 0 0 0 0 0l507.303 507.303c23.486 23.486 23.486 51.67 23.486 84.55v328.807c0 46.972-37.578 79.853-79.853 79.853zM958.239 541.945c0-14.092 0-23.486-4.697-37.578l-502.606-502.606-385.174 385.174 502.606 507.303c9.394 4.697 18.789 4.697 32.881 4.697h342.899c9.394 0 14.092-4.697 14.092-14.092v-342.899zM765.651 833.174c-70.459 0-126.826-56.367-126.826-126.826s56.367-126.826 126.826-126.826c70.459 0 126.826 56.367 126.826 126.826 4.697 70.459-56.367 126.826-126.826 126.826zM765.651 640.587c-37.578 0-65.761 28.183-65.761 65.761s28.183 65.761 65.761 65.761c0 0 0 0 0 0 37.578 0 65.761-28.183 65.761-65.761s-28.183-65.761-65.761-65.761z" />
<glyph unicode="&#xe90b;" glyph-name="Menu_Upload" horiz-adv-x="1040" d="M770.192 703.098c-44.151 117.737-142.265 196.229-289.437 196.229-181.511 0-313.966-137.36-323.777-318.871-93.208-29.434-156.983-122.642-156.983-225.663 0-127.549 98.114-235.474 220.757-235.474h93.208c19.623 0 34.34 14.717 34.34 34.34s-14.717 34.34-34.34 34.34h-93.208c-83.397 0-156.983 78.491-156.983 171.7 0 83.397 58.869 156.983 127.549 166.794l29.434 4.906v24.528c0 156.983 103.020 274.72 264.909 274.72 127.549 0 201.134-63.774 235.474-171.7l4.906-24.528h24.528c122.642-4.906 225.663-98.114 225.663-220.757 0-112.831-73.585-235.474-181.511-235.474h-73.585c-19.623 0-34.34-14.717-34.34-34.34s14.717-34.34 34.34-34.34h73.585c161.888 4.906 245.286 156.983 245.286 299.248-4.906 156.983-117.737 279.625-269.814 294.343zM544.529 448.001c0 0 0 0 0 0l-9.811 9.811c-4.906 4.906-9.811 4.906-14.717 4.906s-9.811-4.906-14.717-4.906l-14.717-9.811-117.737-127.549c-9.811-9.811-9.811-24.528 0-34.34l9.811-4.906c9.811-9.811 24.528-9.811 29.434 0 0 0 0 0 0 0l68.68 78.491v-328.683c0-19.623 14.717-34.34 34.34-34.34v0c19.623 0 34.34 14.717 34.34 34.34v323.777l73.585-78.491c9.811-9.811 19.623-9.811 29.434-4.906 0 0 0 0 0 0l9.811 4.906c9.811 9.811 9.811 24.528 0 34.34l-117.737 137.36z" />
<glyph unicode="&#xe90c;" glyph-name="Menu_Video" d="M799.874 794.348h64.059c17.708-0.277 31.957-14.697 31.957-32.444 0-0.209-0.002-0.417-0.006-0.624v-33.006c0.002-0.139 0.003-0.304 0.003-0.469 0-17.741-14.252-32.153-31.93-32.413h-64.083c-17.704 0.26-31.955 14.673-31.955 32.413 0 0.165 0.001 0.329 0.004 0.494v33.012c-0.003 0.177-0.005 0.385-0.005 0.593 0 17.748 14.249 32.167 31.931 32.444zM799.874 596.28h64.059c17.708-0.277 31.957-14.697 31.957-32.444 0-0.209-0.002-0.417-0.006-0.624v-33.006c0.003-0.177 0.005-0.385 0.005-0.593 0-17.748-14.249-32.167-31.931-32.444h-64.085c-17.708 0.277-31.957 14.697-31.957 32.444 0 0.209 0.002 0.417 0.006 0.624v33.006c-0.003 0.177-0.005 0.385-0.005 0.593 0 17.748 14.249 32.167 31.931 32.444zM799.874 398.056h64.059c17.708-0.277 31.957-14.697 31.957-32.444 0-0.209-0.002-0.417-0.006-0.624v-33.006c0.002-0.139 0.003-0.304 0.003-0.469 0-17.741-14.252-32.153-31.93-32.413h-64.083c-17.704 0.26-31.955 14.673-31.955 32.413 0 0.165 0.001 0.329 0.004 0.494v33.012c-0.003 0.177-0.005 0.385-0.005 0.593 0 17.748 14.249 32.167 31.931 32.444zM799.874 199.988h64.059c17.722-0.346 31.955-14.795 31.955-32.566 0-0.166-0.001-0.331-0.004-0.496v-33.012c0.003-0.177 0.005-0.385 0.005-0.593 0-17.748-14.249-32.167-31.931-32.444h-64.085c-17.708 0.277-31.957 14.697-31.957 32.444 0 0.209 0.002 0.417 0.006 0.624v33.006c-0.002 0.14-0.003 0.306-0.003 0.471 0 17.772 14.234 32.219 31.922 32.565zM160.223 794.348h64.059c17.708-0.277 31.957-14.697 31.957-32.444 0-0.209-0.002-0.417-0.006-0.624v-33.006c0.002-0.139 0.003-0.304 0.003-0.469 0-17.741-14.252-32.153-31.93-32.413h-64.083c-17.704 0.26-31.955 14.673-31.955 32.413 0 0.165 0.001 0.329 0.004 0.494v33.012c-0.003 0.177-0.005 0.385-0.005 0.593 0 17.748 14.249 32.167 31.931 32.444zM160.223 596.28h64.059c17.708-0.277 31.957-14.697 31.957-32.444 0-0.209-0.002-0.417-0.006-0.624v-33.006c0.003-0.177 0.005-0.385 0.005-0.593 0-17.748-14.249-32.167-31.931-32.444h-64.085c-17.708 0.277-31.957 14.697-31.957 32.444 0 0.209 0.002 0.417 0.006 0.624v33.006c-0.003 0.177-0.005 0.385-0.005 0.593 0 17.748 14.249 32.167 31.931 32.444zM160.223 398.056h64.059c17.708-0.277 31.957-14.697 31.957-32.444 0-0.209-0.002-0.417-0.006-0.624v-33.006c0.002-0.139 0.003-0.304 0.003-0.469 0-17.741-14.252-32.153-31.93-32.413h-64.083c-17.704 0.26-31.955 14.673-31.955 32.413 0 0.165 0.001 0.329 0.004 0.494v33.012c-0.003 0.177-0.005 0.385-0.005 0.593 0 17.748 14.249 32.167 31.931 32.444zM160.223 199.988h64.059c17.722-0.346 31.955-14.795 31.955-32.566 0-0.166-0.001-0.331-0.004-0.496v-33.012c0.003-0.177 0.005-0.385 0.005-0.593 0-17.748-14.249-32.167-31.931-32.444h-64.085c-17.708 0.277-31.957 14.697-31.957 32.444 0 0.209 0.002 0.417 0.006 0.624v33.006c-0.002 0.14-0.003 0.306-0.003 0.471 0 17.772 14.234 32.219 31.922 32.565zM959.786 893.926v-891.85h-895.418v891.85h895.418zM959.786 959.999h-895.418c-35.531-0.712-64.063-29.683-64.063-65.318 0-0.266 0.002-0.532 0.005-0.797v-891.81c-0.004-0.257-0.006-0.56-0.006-0.864 0-35.614 28.544-64.56 64.003-65.21l895.479-0.001c35.519 0.651 64.064 29.597 64.064 65.211 0 0.304-0.002 0.607-0.006 0.91v891.804c0.003 0.225 0.004 0.491 0.004 0.757 0 35.635-28.531 64.606-63.997 65.316l-0.066 0.001z" />
<glyph unicode="&#xe90d;" glyph-name="Menu_Video_Longest" d="M512 960c-284.981 0-512-227.019-512-512 0-280.151 227.019-512 512-512s512 227.019 512 512c-4.83 284.981-231.849 512-512 512zM512 3.624c-246.339 0-449.207 198.037-449.207 444.377 0 0 0 0 0 0 0 246.339 198.037 444.377 444.377 444.377s449.207-198.037 449.207-444.377-198.037-444.377-444.377-444.377zM690.716 312.756l-149.735 149.735v304.302c0 19.32-14.49 33.812-33.812 33.812 0 0 0 0 0 0-19.32 0-33.812-14.49-33.812-33.812v-318.792c0-9.66 4.83-19.32 9.66-24.151 0 0 0 0 0 0l159.396-159.396c0 0 0 0 0 0 14.49-14.49 33.812-14.49 43.472 0 0 0 0 0 0 0 19.32 14.49 19.32 33.812 4.83 48.302z" />
<glyph unicode="&#xe90e;" glyph-name="Menu_Heart" horiz-adv-x="1040" d="M291.817 851.284c31.951 0 89.367-15.246 182.627-107.046l46.225-45.413 45.576 46.225c64.714 65.688 133.646 106.56 179.708 106.56 0.833 0.012 1.816 0.018 2.802 0.018 61.88 0 117.568-26.51 156.328-68.792 43.327-43.229 70.044-102.792 70.044-168.595 0-66.045-26.914-125.803-70.373-168.905-3.746-3.746-199.673-215.244-363.973-392.519-5.493-5.222-12.94-8.434-21.137-8.434-0.038 0-0.078 0-0.116 0-8.141 0.034-15.548 3.172-21.1 8.291-39.878 44.421-329.876 366.857-363.611 400.593-43.282 43.026-70.069 102.602-70.069 168.435s26.788 125.41 70.058 168.424c37.756 37.913 89.983 61.367 147.688 61.367 3.28 0 6.542-0.076 9.785-0.226zM291.817 916.16c-2.786 0.102-6.058 0.159-9.344 0.159-75.609 0-144.051-30.683-193.553-80.278-54.939-54.82-88.926-130.611-88.926-214.34s33.986-159.519 88.916-214.331c33.904-33.904 362.828-399.645 362.828-399.645 17.313-17.431 41.295-28.22 67.796-28.22s50.482 10.789 67.79 28.215 359.908 388.129 363.639 392.022c55.007 54.813 89.043 130.64 89.043 214.417s-34.036 159.604-89.035 214.408c-50.775 54.177-122.764 87.927-202.637 87.927-0.838 0-1.674-0.004-2.51-0.011-76.426 0.001-162.063-61.145-225.805-126.022-66.011 64.877-148.892 125.698-228.203 125.698v0z" />
<glyph unicode="&#xe90f;" glyph-name="Menu_Video_MostViewed" d="M513.999 575.82c70.491-0.665 127.379-57.965 127.379-128.55 0-70.080-56.076-127.063-125.805-128.526-71.253 0.669-128.724 58.14-129.394 129.192 0.099 70.617 57.267 127.785 127.81 127.884zM515.436 638.292c-105.89 0-191.73-85.841-191.73-191.73s85.841-191.73 191.73-191.73c105.89 0 191.73 85.841 191.73 191.73s-85.841 191.73-191.73 191.73v0zM513.999 736.235c0.834 0.005 1.82 0.008 2.807 0.008 196.528 0 365.587-117.613 440.629-286.293-78.116-173.87-248.196-290.179-445.44-290.179-197.368 0-367.537 116.455-445.542 284.401 76.651 174.776 246.627 292.076 443.999 292.076 1.247 0 2.494-0.005 3.739-0.014zM513.999 800.145c-0.306 0.001-0.667 0.001-1.029 0.001-227.061 0-422.295-136.273-508.375-331.495-1.658-4.363-1.882-5.334-2.026-6.331-0.295-0.71-0.615-1.234-0.985-1.718-0.289-1.469-0.464-3.18-0.465-4.932-0.71-2.565-1.119-5.51-1.119-8.549s0.408-5.984 1.173-8.781c-0.053-1.52 0.121-3.231 0.453-4.886 0.329-0.297 0.648-0.822 0.91-1.379 0.178-1.149 0.401-2.12 0.697-3.059 87.727-197.684 282.404-333.162 508.724-333.162 226.258 0 420.892 135.404 507.287 329.601 1.757 4.363 2.036 5.331 2.193 6.339 0.267 0.505 0.535 1.031 0.771 1.572 0.308 1.43 0.534 3.070 0.666 4.737 0.661 2.723 1.065 5.688 1.127 8.739-0.073 3.139-0.477 6.103-1.177 8.952-0.261 1.315-0.101 2.912-0.581 4.511-0.16 0.639-0.639 1.118-0.799 1.757-0.22 1.051-0.496 1.96-0.84 2.835-85.73 198.651-280.023 335.25-506.221 335.25-0.136 0-0.271 0-0.407 0h0.021z" />
<glyph unicode="&#xe910;" glyph-name="Bubble" horiz-adv-x="1164" d="M581.818 885.527c281.6 0 509.673-165.236 509.673-365.382s-228.073-365.382-509.673-365.382h-30.255c-18.618 0-34.909 0-53.527 4.655l-41.891 6.982-25.6-32.582c-41.891-39.564-88.436-72.145-141.964-97.745 13.964 37.236 23.273 76.8 25.6 116.364v53.527l-39.564 20.945c-130.327 65.164-202.473 174.545-202.473 295.564 0 200.145 228.073 363.055 509.673 363.055zM581.818 960c-321.164 0-581.818-195.491-581.818-439.855 0-148.945 88.436-281.6 242.036-360.727 0 0 0-2.327 0-2.327 0-65.164-37.236-137.309-58.182-174.545v0c-2.327-4.655-2.327-9.309-2.327-13.964 0-18.618 13.964-32.582 32.582-32.582 0 0 0 0 0 0 2.327 0 6.982 0 9.309 0v0c114.036 18.618 239.709 118.691 262.982 148.945 20.945-2.327 41.891-4.655 65.164-4.655 9.309 0 18.618 0 30.255 0 321.164 0 581.818 195.491 581.818 437.527s-260.655 442.182-581.818 442.182v0 0z" />
<glyph unicode="&#xe911;" glyph-name="Menu_Video_Recommended" d="M1019.304 119.194l-187.89 347.596c18.789 42.275 28.183 89.248 28.183 140.917 0 0 0 0 0 0 4.697 192.587-155.009 352.294-347.596 352.294s-352.294-155.009-352.294-352.294c0-51.67 9.394-103.339 32.881-145.615l-187.89-342.899c-4.697-9.394-4.697-23.486 0-32.881 9.394-9.394 18.789-14.092 32.881-14.092l159.706 37.578 56.367-155.009c4.697-14.092 14.092-18.789 28.183-18.789 0 0 0 0 4.697 0 9.394 0 23.486 4.697 28.183 18.789l164.404 305.321c9.394 0 23.486 0 32.881 0s23.486 0 32.881 0l169.101-305.321c4.697-9.394 14.092-18.789 28.183-18.789 0 0 0 0 4.697 0 14.092 0 23.486 9.394 28.183 18.789l56.367 155.009 159.706-37.578c14.092-4.697 23.486 0 32.881 14.092 0 9.394 0 23.486-4.697 32.881zM291.23 48.735l-42.275 112.734c-4.697 14.092-23.486 23.486-37.578 18.789l-117.431-28.183 136.22 244.257c46.972-61.064 108.037-103.339 183.193-126.826l-122.128-220.771zM225.469 607.706c0 0 0 0 0 0 0 159.706 126.826 286.532 286.532 286.532s286.532-126.826 286.532-286.532-126.826-286.532-286.532-286.532c-159.706 0-286.532 126.826-286.532 286.532zM812.625 180.258c-14.092 4.697-32.881-4.697-37.578-18.789l-42.275-112.734-122.128 220.771c75.156 23.486 140.917 70.459 183.193 131.523l136.22-248.954-117.431 28.183z" />
<glyph unicode="&#xe912;" glyph-name="Menu_Video_TopRated" horiz-adv-x="1040" d="M746.208 25.092h-452.413c0 0-4.918 0-4.918 0-19.67 0-29.505-14.753-29.505-34.423s14.753-29.505 34.423-29.505h457.331c19.67 0 34.423 14.753 34.423 34.423s-19.67 29.505-39.34 29.505zM1031.426 841.402c-4.918 14.753-14.753 24.587-29.505 24.587h-157.361v34.423c0 0 0 0 0 0 0 19.67-14.753 34.423-34.423 34.423h-585.187c0 0 0 0 0 0-14.753 0-29.505-14.753-29.505-34.423v-34.423h-157.361c-14.753 0-29.505-9.834-29.505-24.587 0-4.918-24.587-118.020 39.34-196.702 34.423-44.258 93.432-68.845 162.278-68.845 39.34-122.939 147.526-216.371 270.463-226.207v-226.207h-98.351c-19.67 0-34.423-14.753-34.423-34.423s14.753-34.423 34.423-34.423h260.629c19.67 0 34.423 14.753 34.423 34.423s-14.753 34.423-34.423 34.423h-98.351v226.207c127.857 14.753 231.124 103.269 270.463 226.207 73.763 0 132.773 24.587 167.195 68.845 73.763 78.681 54.093 196.702 49.175 196.702zM97.094 688.959c-24.587 34.423-29.505 88.516-29.505 118.020h122.939v-108.185c0-19.67 0-34.423 4.918-49.175-39.34 0-73.763 14.753-98.351 39.34zM775.712 693.875c0-157.361-118.020-280.3-260.629-280.3s-260.629 127.857-260.629 280.3v177.031h516.342v-177.031zM942.909 688.959c-19.67-24.587-59.011-39.34-103.269-44.258 0 14.753 4.918 34.423 4.918 49.175v113.103h127.857c0-29.505 0-83.598-29.505-118.020z" />
<glyph unicode="&#xe913;" glyph-name="Menu_Video_TrendingNow" horiz-adv-x="1008" d="M232 576.001v-575.999h-160v575.999h160zM264.001 640h-224c-0.034 0-0.073 0-0.112 0-17.611 0-31.888-14.276-31.888-31.888 0-0.040 0-0.079 0-0.118v-639.994c0-17.673 14.327-32 32-32h224c17.673 0 32 14.327 32 32v640c0 0.034 0 0.073 0 0.112 0 17.611-14.276 31.888-31.888 31.888-0.040 0-0.079 0-0.118 0h0.006zM583.681 385.761v-385.759h-160v385.759h160zM615.68 449.76h-224c-0.034 0-0.073 0-0.112 0-17.611 0-31.888-14.276-31.888-31.888 0-0.040 0-0.079 0-0.118v-449.754c0-17.673 14.327-32 32-32h224c17.673 0 32 14.327 32 32v449.76c0 0.034 0 0.073 0 0.112 0 17.611-14.276 31.888-31.888 31.888-0.040 0-0.079 0-0.118 0h0.006zM936 896v-896h-159.679v896h159.679zM968 960h-223.84c-17.673 0-32-14.327-32-32v-960c0.055-17.651 14.349-31.945 31.995-32h223.845c17.651 0.055 31.945 14.349 32 31.995v960.005c0 17.673-14.327 32-32 32v0z" />
<glyph unicode="&#xe914;" glyph-name="Menu_Signup_Default" d="M38.406-53.383l-31.010-0.768-0.614 32.238c0 158.582 31.932 191.895 99.785 225.669 19.481 8.668 36.226 18.467 51.732 29.857l37.768-49.661c-17.8-13.462-37.953-25.697-59.312-35.799-42.776-21.155-63.040-32.669-66.264-139.209 110.532 3.991 123.12 31.471 142.924 72.766 9.393 20.497 19.586 38.027 31.24 54.449l46.286-43.549c-7.282-11.853-14.769-26.008-21.397-40.633-32.333-67.595-63.651-105.361-231.136-105.361zM702.515 513.705c-69.881 0.087-126.497 56.757-126.497 126.65 0 69.947 56.704 126.651 126.651 126.651s126.65-56.704 126.651-126.65c-0.148-69.941-56.851-126.59-126.798-126.651zM702.515 703.603c-34.932 0-63.249-28.317-63.249-63.249s28.317-63.249 63.249-63.249c34.932 0 63.249 28.317 63.249 63.249-0.061 34.907-28.342 63.187-63.243 63.249zM427.415-58.756c-0.074-0.001-0.162-0.001-0.25-0.001-3.371 0-6.611 0.562-9.63 1.598-10.303 3.31-18.259 11.826-20.78 22.447l-38.421 162.631-71.538 79.215c-34.234 37.919-55.573 61.713-68.468 77.526l-188.518 42.985c-10.956 2.565-19.581 10.579-22.964 20.963-1.068 3.138-1.647 6.497-1.647 9.991 0 8.015 3.050 15.316 8.054 20.807l115.728 125.398c5.805 6.57 14.236 10.703 23.634 10.746h175.783c11.053 19.65 23.949 45.287 37.304 72.153 35.002 69.696 74.609 153.516 114.369 199.877 42.083 51.158 96.346 90.805 158.425 114.713 93.427 33.599 198.222 52.511 307.434 52.511 14.87 0 29.658-0.35 44.356-1.044 13.656-1.182 26.081-13.766 27.085-29.458 0.465-8.383 11.826-205.036-41.291-347.806-21.291-62.888-58.429-115.723-106.723-155.504-44.951-39.767-151.798-89.506-223.335-129.42-26.251-14.738-54.191-29.783-69.849-39.607v-162.881c0-0.019 0-0.042 0-0.063 0-9.549-4.272-18.101-11.010-23.849l-117.176-116.401c-5.496-4.677-12.679-7.522-20.525-7.522-0.016 0-0.033 0-0.048 0zM257.933 333.631c6.755-7.676 94.566-105.005 152.594-169.328 3.514-3.802 6.089-8.523 7.327-13.761l28.442-120.105 66.626 73.227v165.030c0.040 9.826 4.554 18.591 11.611 24.364 25.42 17.417 55.049 35.153 85.733 51.145 70.142 38.86 177.296 88.753 216.443 123.447 41.312 33.51 72.573 77.902 89.545 128.827 37.873 102.061 40.022 237.002 38.948 295.338-2.815 0.034-6.14 0.052-9.469 0.052-101.216 0-198.344-17.508-288.519-49.662-48.362-19.030-93.908-52.529-128.635-95.188-35.307-40.956-74.607-124.469-106.232-187.564-18.729-37.304-34.849-69.389-48.818-92.109-5.679-9.040-15.572-14.977-26.856-15.045h-179.777l-71.077-74.915 144.766-33.16c7.003-1.636 12.957-5.393 17.309-10.546z" />
<glyph unicode="&#xe915;" glyph-name="Menu_System_Language" d="M1024 448c0 272.44-211.376 493.211-479.119 512-4.697 0-9.394 0-18.789 0 0 0-4.697 0-4.697 0-4.697 0-4.697 0-9.394 0-281.835 0-512-230.165-512-512s230.165-512 512-512c4.697 0 4.697 0 9.394 0 0 0 4.697 0 4.697 0 4.697 0 14.092 0 18.789 0 267.743 18.789 479.119 239.56 479.119 512zM958.239 448c0-56.367-9.394-112.734-32.881-164.404-18.789 4.697-61.064 14.092-140.917 23.486 4.697 42.275 9.394 89.248 9.394 140.917 0 37.578 0 75.156-4.697 112.734 98.642 14.092 140.917 28.183 145.615 28.183l-9.394 28.183c23.486-51.67 32.881-108.037 32.881-169.101 0 0 0 0 0 0zM286.532 448c0 37.578 4.697 70.459 4.697 103.339 51.67-4.697 112.734-4.697 187.89-9.394v-220.771c-70.459 0-131.523-4.697-183.193-9.394-4.697 46.972-9.394 89.248-9.394 136.22zM540.183 889.541c79.853-23.486 145.615-131.523 173.798-277.138-46.972-4.697-108.037-4.697-173.798-9.394v286.532zM479.119 889.541v-281.835c-70.459 0-126.826 4.697-173.798 9.394 28.183 140.917 93.945 248.954 173.798 272.44zM479.119 260.11v-253.651c-70.459 23.486-136.22 117.431-169.101 244.257 46.972 4.697 103.339 9.394 169.101 9.394zM540.183 6.459v253.651c65.761 0 122.128-4.697 169.101-4.697-32.881-131.523-93.945-230.165-169.101-248.954zM540.183 321.174v225.468c75.156 0 136.22 4.697 183.193 9.394 4.697-32.881 4.697-70.459 4.697-103.339 0-46.972-4.697-89.248-9.394-131.523-46.972 0-103.339 0-178.495 0zM911.266 645.284c-9.394-4.697-51.67-14.092-131.523-23.486-18.789 93.945-51.67 178.495-93.945 234.862 98.642-37.578 178.495-117.431 225.468-211.376zM356.991 870.752c-51.67-61.064-93.945-145.615-117.431-248.954-70.459 9.394-112.734 18.789-131.523 18.789 51.67 108.037 140.917 187.89 248.954 230.165zM84.55 584.22c14.092-4.697 56.367-14.092 145.615-23.486-4.697-37.578-9.394-70.459-9.394-108.037 0-46.972 4.697-93.945 14.092-140.917-75.156-9.394-122.128-18.789-140.917-23.486-18.789 51.67-28.183 103.339-28.183 159.706 0 46.972 4.697 93.945 18.789 136.22zM122.128 227.229c23.486 4.697 65.761 14.092 126.826 18.789 23.486-89.248 65.761-164.404 112.734-220.771-103.339 37.578-187.89 112.734-239.56 201.982zM690.495 39.339c37.578 51.67 70.459 126.826 89.248 211.376 61.064-9.394 103.339-14.092 122.128-18.789-51.67-89.248-122.128-155.009-211.376-192.587z" />
<glyph unicode="&#xe916;" glyph-name="Menu_System_Paying" d="M1016.988 663.087l-140.274 266.521c-9.351 18.703-28.054 28.054-46.758 28.054v0h-635.91c-18.703 0-37.406-9.351-46.758-28.054l-140.274-261.845c-9.351-18.703-4.676-37.406 4.676-51.434l476.932-663.965c4.676-9.351 18.703-14.028 28.054-9.351 4.676 0 4.676 4.676 9.351 9.351l486.284 659.289c9.351 14.028 9.351 32.731 4.676 51.434zM937.499 672.439h-173.005l70.137 196.384 102.867-196.384zM572.785 892.202h205.736l-65.461-182.357-140.274 182.357zM666.302 672.439h-294.576l140.274 201.060 154.302-201.060zM315.616 700.493l-65.461 191.708h196.384l-130.923-191.708zM680.329 606.977l-173.005-490.96-163.654 490.96h336.658zM437.187 130.045l-341.334 476.932h182.357l158.977-476.932zM745.79 606.977h182.357l-350.686-476.932 168.329 476.932zM189.369 873.499l65.461-205.736h-173.005l107.544 205.736z" />
<glyph unicode="&#xe917;" glyph-name="Bubbles" horiz-adv-x="1088" d="M444.124 887.878c206.126 0 369.752-119.001 369.752-267.752 0-165.751-155.126-286.877-361.253-286.877-21.25 0-42.501 0-63.75 4.25l-36.126 4.25-42.501-36.126c-27.625-27.625-59.5-51-91.375-72.25 12.75 27.625 19.125 57.375 21.25 87.126l2.125 42.501-36.126 19.125c-93.501 46.75-136.001 150.876-136.001 240.127 0 148.751 167.876 265.627 374.003 265.627zM444.124 958.003c-244.376 0-442.003-148.751-442.003-335.753 0-116.875 55.251-240.127 172.126-301.752 0 0 0-2.125 0-2.125 0-51-40.375-121.126-57.375-148.751v0c-2.125-4.25-2.125-6.375-2.125-10.625 0-14.875 10.625-25.5 25.5-25.5 0 0 0 0 0 0 2.125 0 6.375 0 6.375 0s0 0 0 0c87.126 14.875 214.627 114.751 233.752 138.126 17-2.125 31.875-4.25 48.876-4.25 6.375 0 14.875 0 23.375 0 244.376 0 433.503 142.376 431.378 354.878-2.125 187.001-195.502 335.753-439.878 335.753v0 0zM1085.879 341.749c4.25 91.375-44.625 176.376-125.376 218.876-2.125-25.5-8.5-51-17-74.376 48.876-29.751 78.625-85 74.376-144.501 0-74.376-34-129.626-112.626-170.001l-34-17c0 0 4.25-89.251 8.5-110.5-36.126 23.375-65.875 55.251-89.251 91.375l-34-6.375c-14.875-2.125-53.125-2.125-53.125-2.125-91.375 0-159.376 23.375-218.876 68.001 17 2.125-93.501 2.125-97.75-2.125 68.001-82.876 176.376-136.001 314.502-136.001 8.5 0 14.875 0 19.125 0 14.875 0 27.625 0 42.501 2.125 17-21.25 108.376-110.5 182.752-123.25 0 0 0 0 0 0s4.25 0 6.375 0c12.75 0 21.25 10.625 21.25 21.25 0 0 0 0 0 0 0 2.125 0 6.375-2.125 8.5v0c-21.25 44.625-34 91.375-36.126 140.251 0 0 0 2.125 0 2.125 104.125 55.251 150.876 133.876 150.876 233.752v0z" />
<glyph unicode="&#xe918;" glyph-name="outside_link" horiz-adv-x="1027" d="M904.007 1.952h-836.555v652.583h260.339l65.953 62.481h-326.291c-34.712 0-65.953-27.769-65.953-65.953v-649.111c0-34.712 27.769-65.953 65.953-65.953h836.555c34.712 0 65.953 27.769 65.953 65.953v510.264l-65.953-62.481v-447.783zM831.112 946.115c-13.885 13.885-31.241 13.885-45.126 0 0 0 0 0 0 0-13.885-13.885-13.885-34.712 0-45.126l118.020-118.020c-10.414 0-20.827 0-31.241 0-301.993 0-558.861-222.156-603.986-520.677h65.953c45.126 263.81 270.753 454.725 538.034 454.725v0c10.414 0 20.827 0 31.241 0l-118.020-118.020c-13.885-13.885-13.885-34.712 0-45.126 6.942-6.942 13.885-10.414 24.299-10.414v0c6.942 0 17.356 3.472 24.299 10.414l190.915 197.857-194.386 194.386z" />
<glyph unicode="&#xe919;" glyph-name="Circle_Check" d="M512 960c0 0 0 0 0 0-284.981 0-512-227.019-512-512 0-280.151 227.019-512 512-512s512 227.019 512 512c-4.83 284.981-231.849 512-512 512zM512 3.624c-246.339 0-449.207 198.037-449.207 444.377 0 0 0 0 0 0 0 246.339 198.037 444.377 444.377 444.377s449.207-198.037 449.207-444.377c0-246.339-198.037-444.377-444.377-444.377zM714.867 636.378c0 0 0 0 0 0l-299.471-304.302-135.245 135.245c-14.49 9.66-33.812 9.66-43.472 0-14.49-14.49-14.49-33.812 0-43.472l159.396-159.396c0 0 0 0 0 0 14.49-14.49 33.812-9.66 43.472 0 0 0 0 0 0 0s0 0 0 0l318.792 323.622c14.49 14.49 14.49 33.812 0 48.302-9.66 14.49-28.981 14.49-43.472 0z" />
<glyph unicode="&#xe91a;" glyph-name="Menu_User_Logout" d="M116.474 416.455h553.25c19.412 0 33.972 14.559 33.972 33.972s-14.559 33.972-33.972 33.972h-548.397l116.474 116.474c9.706 14.559 9.706 33.972 0 43.678-9.706 14.559-33.972 14.559-43.678 0l-189.27-194.123 189.27-194.123c4.853-4.853 14.559-9.706 24.265-9.706s14.559 4.853 24.265 9.706c0 0 0 0 0 0 9.706 14.559 9.706 33.972 0 43.678l-126.18 116.474zM960.91 960h-543.544c-33.972 0-63.090-29.118-63.090-63.090v-286.332h63.090v247.507c0 19.412 19.412 38.825 38.825 38.825h465.896c19.412 0 38.825-19.412 38.825-38.825v-820.17c0-19.412-19.412-38.825-38.825-38.825h-465.896c-19.412 0-38.825 19.412-38.825 38.825v252.36h-63.090v-291.185c0-33.972 29.118-63.090 63.090-63.090h543.544c33.972 0 63.090 29.118 63.090 63.090v897.819c0 33.972-29.118 63.090-63.090 63.090z" />
<glyph unicode="&#xe91b;" glyph-name="pornstar" d="M1003.556 174.933c-6.578 3.289-9.867 3.289-16.356 6.578-6.578 3.289-13.067 3.289-16.356 6.578-16.356 16.356-32.711 26.222-49.156 36-16.356 9.867-32.711 22.933-45.867 36-16.356 16.356-104.8 124.444-117.867 144.089-19.644 26.222-39.289 39.289-65.511 39.289-3.289 0-6.578 0-6.578 0-26.222-3.289-98.222-36-131.022-52.444-22.933-13.067-58.933-36-88.444-58.933-3.289 16.356-3.289 32.711-6.578 42.578v3.289c13.067 6.578 32.711 19.644 39.289 45.867 9.867 6.578 16.356 19.644 16.356 36v0c0 16.356-13.067 29.511-26.222 32.711-6.578 6.578-24.889 15.733-26.222 16.356s-13.778 4.178-17.333 5.956c-3.556 1.778-18.756 10.4-25.244 20.267v3.289c19.644-6.578 39.289 3.289 45.867 22.933 6.578 3.289 9.867 9.867 13.067 16.356 3.289 3.289 3.289 9.867 6.578 13.067 6.578 6.578 13.067 13.067 13.067 22.933 0 6.578 0 13.067-3.289 19.644 3.289 3.289 6.578 6.578 6.578 13.067 0 3.289 6.578 16.356 9.867 36 6.578 36-3.289 72.089-29.511 98.222-22.933 22.933-55.644 32.711-91.733 32.711-19.644 0-42.578-3.289-62.222-13.067-42.578-19.644-55.644-52.444-68.8-85.156-3.289-6.578-6.578-16.356-13.067-26.222 0-3.289-3.289-3.289-3.289-3.289s-9.867 3.289-16.356 13.067c-6.578 9.867-19.644 13.067-29.511 9.867-13.067-3.289-19.644-13.067-22.933-26.222-3.289-29.511 9.867-52.444 32.711-72.089 0 0 0 0 3.289 0-3.289-6.578-4-8.533-6.578-13.067-13.067-13.067-26.222-19.644-45.867-22.933h-3.289c-13.067 0-32.711 9.867-45.867 16.356-9.867 6.578-22.933 6.578-32.711-3.289-9.867-9.867-13.067-22.933-6.578-32.711 6.578-13.067 22.933-39.289 49.156-55.644 0-6.578 0-9.867 0-16.356 0-3.289 9.867-26.222 39.289-36 9.867-3.289 22.933-6.578 36-9.867-0.978-2.756-2.756-5.422-3.289-6.578-3.289-6.578-6.578-10.489-13.067-19.644-9.867-16.356-22.933-36-29.511-58.933-3.289-13.067-13.067-26.222-19.644-42.578-9.867-19.644-19.644-39.289-22.933-55.644s-16.356-39.289-22.933-45.867c-2.4-2.667-5.067-3.556-9.867-6.578-6.578-3.289-16.356-9.867-22.933-9.867-3.289 0-13.067 0-16.356 0-13.067 0-26.222-6.578-32.711-22.933-3.289-6.578 0-16.356 3.289-26.222 9.867-16.356 29.511-16.356 39.289-16.356 3.289 0 6.578 0 13.067 0 16.356 0 32.711 3.289 49.156 6.578v0c3.289 0 3.289-3.289 6.578-6.578l3.289-3.289c6.578-6.578 16.356-16.356 36-16.356s26.222 13.067 29.511 19.644c6.578 13.067 3.289 22.933-9.867 36-2.044 3.2-3.289 3.289-3.289 6.578s0 3.289 0 9.867v3.289c0 3.289 9.867 22.933 22.933 42.578 9.867 13.067 26.222 36 36 52.444l9.867 16.356c6.578 9.867 22.933 36 36 62.222 6.578 13.067 13.067 26.222 19.644 36 6.578-26.222 13.067-65.511 9.867-91.733 0-9.867-3.289-19.644-6.578-29.511-6.578-16.356-13.067-39.289-13.067-75.289 3.289-81.867 62.222-111.378 111.378-111.378 13.067 0 26.222 0 36 3.289 68.8 16.356 186.667 170.311 186.667 173.6 13.067 16.356 32.711 29.511 45.867 32.711 0 0 3.2-3.467 3.289-3.289 3.289-6.578 7.911-12.622 13.067-22.933 19.644-29.511 72.089-62.222 108.089-72.089 26.222-9.867 29.511-16.356 29.511-16.356v0c0-3.289 0-3.289 0-3.289v0c-3.289-6.578-3.289-13.067-3.289-22.933 0-26.222 19.644-42.578 45.867-42.578 6.578 0 16.356 0 26.222 3.289 0 0 16.356-6.578 26.222-9.867s20-6.222 33.156-6.222c9.867 0 22.222 1.778 29.067 2.933 0 0 6.578 0 9.867 0 29.511 3.289 36 19.644 39.289 29.511 3.467 23.289-3.111 36.356-19.467 46.222zM865.956 148.711c-9.867 0-13.067 6.578-13.067 9.867 0 6.578 0 9.867 0 9.867 0 3.289 1.511 9.067 0 16.356-3.289 22.933-22.933 32.711-52.444 42.578s-75.289 39.289-91.733 62.222c-6.578 6.578-9.867 13.067-13.067 19.644-6.578 13.067-13.067 22.933-22.933 22.933-13.067 0-55.644-19.644-78.578-52.444-29.511-36-124.444-150.667-167.022-160.444-9.867-3.289-19.644-3.289-29.511-3.289-22.933 0-75.289 6.578-78.578 78.578-3.289 29.511 3.289 45.867 9.867 62.222 3.289 13.067 9.867 22.933 9.867 39.289 0 36-9.867 121.156-29.511 137.511v0 0h-3.289c-6.578 0-22.933-3.289-39.289-29.511-6.578-9.867-13.067-22.933-19.644-36-13.067-19.644-29.511-45.867-36-55.644l-9.867-13.067c-9.867-16.356-26.222-36-36-52.444-13.067-19.644-22.4-41.067-25.689-50.844l-0.889-4.444c-3.289-9.867-2.933-20 0.356-33.156 3.289-6.578 6.578-9.867 9.867-13.067-3.289 0-12.8 9.867-13.067 9.867l-3.289 3.289c-5.333 3.822-9.867 9.867-19.644 9.867-3.289 0-6.578 0-9.867 0-16.356-3.289-29.511-6.578-45.867-6.578-3.289 0-6.578 0-9.867 0-9.867 0-13.067 0-13.067 0v0 0h3.289c6.578 0 13.067 0 22.933 0 13.067 3.289 22.933 9.867 32.711 13.067 3.733 1.689 9.956 5.244 13.067 6.578 9.867 3.289 32.711 42.578 39.289 65.511 3.289 13.067 13.067 32.711 22.933 49.156 6.578 16.356 16.356 32.711 19.644 45.867 6.578 19.644 16.356 36 26.222 52.444 6.578 9.867 9.867 16.356 13.067 22.933 9.867 19.644 16.356 49.156 16.356 52.444v6.578h-6.578c0 0-13.067-3.289-26.222-3.289-13.067 0-26.222 3.289-36 6.578-6.578 3.289-13.067 6.578-16.356 13.067 6.578 0 13.067 0 19.644 0 13.067 0 22.933 3.289 32.711 6.578 22.933 6.578 29.511 19.644 29.511 19.644l3.289 6.578h-6.578c0 0-26.222-6.578-52.444-6.578-16.356 0-29.511 3.289-39.289 6.578-16.356 6.578-29.511 19.644-36 29.511 16.356-6.578 32.711-13.067 49.156-13.067 3.289 0 6.578 0 9.867 0 26.222 3.289 42.578 13.067 62.222 32.711 13.067 13.067 22.933 45.867 22.933 49.156v3.289h-3.289c-3.289 0-36 6.578-39.289 39.289 9.867-6.578 22.933-19.644 39.289-19.644 13.067 0 22.933 6.578 29.511 22.933 6.578 9.867 9.867 19.644 13.067 29.511 9.867 26.222 19.644 52.444 52.444 65.511 16.356 6.578 32.711 9.867 49.156 9.867 26.222 0 49.156-9.867 65.511-26.222 19.644-19.644 26.222-39.289 22.933-65.511-3.289-13.067-6.578-22.933-6.578-29.511l-16.356 3.289v-3.289c0-3.289-6.578-19.644 0-29.511 3.289-3.289 9.867-9.867 9.867-9.867s-3.289-3.289-9.867-3.289c-3.289 0-6.578-9.867-3.289-16.356 0-3.289 0-3.289 0-3.289h-3.289c0 0 0-3.289 0-6.578v0c-9.867 0-13.067-13.067-13.067-16.356s-3.289-3.289-3.289-3.289-3.289 0-6.578 3.289c-16.356 9.867-26.222 9.867-29.511 9.867s-3.289 0-3.289 0h-3.289v-3.289c-3.289-9.867-9.867-49.156 0-62.222 9.867-9.867 26.222-26.222 42.578-32.711l6.578-3.289c9.867-3.289 14.756-5.689 19.644-13.067 6.578-6.578 9.867-6.578 13.067-6.578v0c0 0 0 0 0-3.289v0-3.289c-3.289 0-9.867-3.289-13.067-16.356-3.289-16.356-13.067-22.933-26.222-29.511-6.222-3.822-9.867-3.289-13.067-6.578-9.867-9.867-6.578-19.644-3.289-29.511 0 0 1.333-2.4 3.289-6.578 9.867-29.511 9.867-88.444 9.867-88.444v-9.867l6.578 6.578c0 0 88.444 65.511 127.733 88.444 39.289 19.644 101.511 49.156 117.867 49.156s29.511-6.578 45.867-22.933c16.356-22.933 104.8-127.733 121.156-147.378 13.067-16.356 32.711-29.511 52.444-42.578 13.067-6.578 26.222-19.644 42.578-32.711 9.867-9.867 22.933-13.067 29.511-13.067 3.289 0 13.067-3.289 13.067-3.289s-3.289-3.289-9.867-3.289c-3.289 0-6.578 0-9.867 0-13.067-3.289-25.778-3.733-45.867 0-2.222 0.444-9.867 3.289-16.356 6.578-9.867 3.289-19.644 6.578-29.511 3.289-6.844-4.089-6.489-3.556-13.067-3.556z" />
<glyph unicode="&#xe91c;" glyph-name="VR_Oculus" horiz-adv-x="1259" d="M881.071 825.93h-502.914c-0.026 0-0.059 0-0.092 0-208.752 0-377.988-169.188-378.066-377.923v-0.007c0.078-208.741 169.315-377.93 378.066-377.93 0.033 0 0.064 0 0.097 0h502.909c0.015 0 0.029 0 0.046 0 208.701 0 377.884 169.184 377.884 377.884 0 0.016 0 0.033 0 0.049v-0.002c0 0.015 0 0.029 0 0.046 0 208.701-169.184 377.884-377.884 377.884-0.016 0-0.033 0-0.049 0zM1005.369 448c-0.014-72.815-59.037-131.839-131.85-131.853h-487.808c-0.040 0-0.089 0-0.138 0-72.838 0-131.892 59.021-131.944 131.847v0.005c0.053 72.831 59.105 131.853 131.944 131.853 0.048 0 0.097 0 0.144 0h487.8c72.815-0.014 131.839-59.037 131.853-131.85v-0.001z" />
<glyph unicode="&#xe91d;" glyph-name="VR" horiz-adv-x="1511" d="M1391.828 134.603c-2.384 0-5.953 0-8.345 0h-378.944c-34.552 0-53.62 42.905-70.3 84.601-3.572 9.535-9.535 21.443-11.92 25.028-7.158 10.731-14.304 20.256-21.443 29.792-46.474 65.537-63.161 90.564-139.42 90.564-78.648 0-92.952-20.256-144.184-96.526-4.763-7.158-10.731-15.493-15.493-22.648-2.384-3.572-7.158-15.493-11.92-25.028-17.87-41.71-36.939-85.794-71.505-85.794h-408.732c-56.013-3.572-104.871 38.129-109.633 94.137v438.534c4.763 56.013 54.807 97.717 109.633 92.952h1292.946c54.807 3.572 103.667-36.939 108.442-91.759v-424.228c-4.763-61.966-58.391-109.633-119.159-109.633zM1009.313 189.415h376.567c35.746-2.384 67.926 23.84 71.505 59.584v415.882c-3.572 26.219-26.219 45.285-52.431 42.905h-1300.095c-26.219 2.384-50.043-17.87-53.62-44.095v-430.187c3.572-26.219 26.219-46.474 53.62-44.095h407.545c8.345 9.535 20.256 38.129 27.413 52.431 5.953 14.304 11.92 26.219 16.681 34.552 5.953 8.345 10.731 15.493 15.493 22.648 53.62 79.843 81.029 119.159 188.285 119.159 103.667 0 134.653-45.285 182.327-113.208 5.953-9.535 13.107-19.066 21.443-29.792 5.953-8.345 10.731-20.256 16.681-35.746 8.345-13.107 21.443-41.71 28.599-50.043z" />
<glyph unicode="&#xe91e;" glyph-name="VR_Download" horiz-adv-x="1495" d="M101.873 75.962c-52.655 0-97.302 41.213-101.883 93.867v557.488c4.578 54.946 52.655 97.302 108.75 93.867h1279.813c53.805 3.437 101.883-37.78 106.458-92.727v-543.748c-5.719-64.101-61.817-113.327-125.921-108.75h-374.33c-30.91-1.141-61.817 13.739-80.135 38.921-8.012 11.447-14.885 21.757-21.757 30.91-45.79 66.396-62.959 91.577-137.368 91.577-78.984 0-92.727-20.603-143.098-97.302-4.578-6.869-10.307-14.885-14.885-22.895-19.46-26.334-50.369-42.359-82.422-41.213h-405.24c-4.578 0-5.719 0-8.012 0zM51.503 172.115c2.293-27.474 26.334-46.933 53.805-45.79h408.673c16.025-1.141 30.91 6.869 40.063 19.46 4.578 6.869 10.307 14.885 14.885 21.757 53.805 80.135 80.135 120.196 186.593 120.196 101.883 0 132.79-45.79 180.865-114.471 6.869-9.156 13.739-19.46 20.603-29.765 9.156-11.447 22.895-18.317 37.78-18.317h377.766c36.628-2.293 68.688 25.181 72.113 60.676v536.877c-2.293 26.334-26.334 45.79-52.655 44.641h-1285.538c-27.474 2.293-51.51-18.317-53.805-45.79v-549.478zM420.106 298.032c-101.883 0-185.441 83.562-185.441 185.441s83.562 185.441 185.441 185.441c101.883 0 185.441-83.562 185.441-185.441s-82.422-185.441-185.441-185.441zM420.106 617.417c-73.266 0-133.93-59.523-133.93-133.93s59.523-133.93 133.93-133.93 133.93 59.523 133.93 133.93-59.523 133.93-133.93 133.93zM1079.478 298.032c-101.883 0-185.441 83.562-185.441 185.441s83.562 185.441 185.441 185.441 185.441-83.562 185.441-185.441-83.562-185.441-185.441-185.441zM1079.478 617.417c-73.266 0-133.93-59.523-133.93-133.93s59.523-133.93 133.93-133.93 133.93 59.523 133.93 133.93-60.676 133.93-133.93 133.93z" />
<glyph unicode="&#xe91f;" glyph-name="Menu_User_Settings" horiz-adv-x="1040" d="M968 544.96l-81.6 18.24c-7.223 22.91-15.36 42.399-24.993 60.987l44.193 71.973c17.6 26.4 25.6 65.44 0 90.4l-44.8 45.28c-24 24.96-67.2 20.48-92.8 2.88l-72-45.92c-16.18 8.855-35.218 17.189-55.013 23.881l-21.787 83.799c-4.8 30.56-32 63.52-67.2 63.52h-64c-35.2 0-57.6-33.44-64-64l-20.8-82.080c-24.62-8.379-45.236-17.247-65.033-27.477l-70.967 48.277c-25.6 17.6-67.2 22.080-92.8-2.88l-44.8-45.28c-25.6-24.96-17.6-64 0-90.4l46.4-77.92c-8-17.76-16-36-22.4-55.040l-81.6-18.24c-30.4-5.44-64-32.16-64-67.52v-64c0-35.36 33.6-56.96 64-64l83.2-20.8c7.242-20.816 14.268-37.623 22.133-53.95l-47.733-75.010c-17.6-26.56-25.6-65.44 0-90.56l44.8-45.12c25.6-25.12 67.2-20.48 92.8-2.88l73.6 47.2c17.268-9.154 37.884-18.077 59.224-25.446l23.976-82.874c8-30.56 28.8-64 64-64h64c35.2 0 62.4 32.96 67.2 63.52l19.2 83.36c22.189 6.94 41.257 15.136 59.28 25.002l70.32-46.762c25.6-17.6 68.8-22.24 92.8 2.88l44.8 45.12c25.6 25.12 17.6 64 0 90.56l-43.2 74.080c6.931 14.148 14.496 32.275 21.139 50.841l84.461 24.839c30.4 7.040 64 28.64 64 64v64c0 35.36-33.6 62.080-64 67.52zM968 417.92c-4.137-2.657-8.941-4.749-14.072-6.012l-118.728-29.668-11.2-33.6c-5.694-17.726-12.199-32.865-19.93-47.246l-15.27-30.034 62.4-104.64c3.533-4.218 5.861-9.555 6.392-15.411l-41.592-42.029c-4.235 0.835-7.993 2.394-11.324 4.556l-105.476 66.964-32-16.8c-13.395-7.19-29.259-14.062-45.718-19.648l-37.482-11.872-27.2-119.2c0.005-0.156 0.009-0.338 0.009-0.522 0-5.206-2.501-9.827-6.367-12.729l-57.641-0.030c-2.697 4.139-4.886 8.928-6.313 14.035l-28.887 118.125-33.6 10.72c-20.599 6.7-38.061 14.122-54.738 22.843l-31.662 16.517-104-67.2c-4.073-2.669-9.029-4.318-14.358-4.479l-41.642 40.799c2.246 5.874 4.399 10.618 6.787 15.22l65.213 108.14-16 31.36c-6.288 11.854-12.248 25.878-17.040 40.434l-11.76 35.726-116.8 29.28c-6.048 1.291-11.404 3.508-16.208 6.522l0.208 59.398c2.96 1.444 6.663 2.959 10.465 4.261l120.735 26.939 11.2 35.36c6.326 18.25 12.81 33.363 20.202 47.938l14.998 29.182-65.6 107.84c-2.792 4.463-4.995 9.643-6.327 15.162l41.527 42.438c4.235-0.835 7.993-2.394 11.324-4.556l107.076-68.244 33.6 17.28c14.566 8.234 31.51 15.665 49.227 21.371l37.173 11.269 28.8 116.8c1.385 5.877 3.59 11.058 6.526 15.735l59.074-0.215c0-0.64 3.2-6.24 4.8-10.88l27.2-121.44 33.6-11.2c19.123-5.894 35.549-12.845 51.097-21.217l30.503-16.223 104 65.76c3.345 2.79 7.69 4.484 12.43 4.484 0.13 0 0.26-0.001 0.389-0.004l41.581-40.8c-0.484-5.389-2.207-10.291-4.88-14.535l-63.92-105.305 16-31.68c8.049-14.004 15.116-30.227 20.348-47.252l11.652-37.068 118.4-26.24c5.341-0.59 9.909-3.469 12.761-7.62l0.039-56.86zM520 255.68c-105.663 0.726-191.040 86.55-191.040 192.316 0 106.215 86.105 192.32 192.32 192.32s192.318-86.102 192.32-192.315c-0.117-106.242-86.27-192.323-192.528-192.323-0.377 0-0.754 0.001-1.13 0.003zM520 576c-70.692 0-128-57.308-128-128s57.308-128 128-128c70.692 0 128 57.308 128 128-0.154 70.63-57.37 127.846-127.985 128z" />
<glyph unicode="&#xe920;" glyph-name="Menu_User_Subscriptions" d="M662.571 1.863c-0.278-0.009-0.607-0.013-0.935-0.013-17.678 0-32.009 14.331-32.009 32.009 0 0.329 0.005 0.657 0.014 0.983-0.001 304.402-223.934 529.982-528.549 529.982-18.188 0-32.931 14.743-32.931 32.931s14.743 32.931 32.931 32.931c342.486 0 594.41-253.736 594.41-595.892-0.056-18.165-14.767-32.876-32.926-32.931zM990.239 4.168c-18.165 0.056-32.876 14.767-32.931 32.926-0.16 472.981-383.304 856.415-856.154 857.043-18.247 0-32.991 14.744-32.991 32.931s14.743 32.931 32.931 32.931c509.267-0.675 921.872-413.57 922.077-922.881 0.009-0.298 0.013-0.626 0.013-0.955 0-17.678-14.331-32.009-32.009-32.009-0.329 0-0.657 0.005-0.983 0.014zM183.421-64c-0.22-0.001-0.481-0.001-0.741-0.001-100.441 0-181.863 81.423-181.863 181.863s81.423 181.863 181.863 181.863c100.411 0 181.816-81.375 181.863-181.775 0.001-0.166 0.001-0.357 0.001-0.548 0-100.088-81.058-181.243-181.108-181.402zM183.421 236.005c-65.070-0.234-117.729-53.037-117.729-118.14 0-65.247 52.893-118.141 118.141-118.141s118.141 52.893 118.141 118.141c0 0.029 0 0.057 0 0.086 0 0.070 0 0.158 0 0.245 0 65.066-52.746 117.812-117.812 117.812-0.261 0-0.521-0.001-0.781-0.002z" />
<glyph unicode="&#xe921;" glyph-name="Stream" horiz-adv-x="1207" d="M489.070 209.401c-3.389 0-5.932 0.845-9.322 2.543-5.932 3.389-10.175 10.175-10.175 16.954v440.762c0 6.779 3.389 13.564 10.175 16.954 5.932 3.389 13.564 3.389 19.497-0.845l347.526-220.381c5.932-3.389 8.477-9.322 8.477-16.107s-3.389-12.712-8.477-16.107l-347.526-220.381c-3.389-2.543-6.779-3.389-10.175-3.389zM507.714 634.063v-371.259l292.429 185.628-292.429 185.628zM1168.867 448.427c0-160.198-66.962-305.143-174.608-408.554-5.932-5.932-7.63-15.255-3.389-22.888 0 0 0 0 0 0 5.932-11.020 20.343-12.712 29.664-4.235 115.278 110.191 186.474 264.458 186.474 435.684 0 169.526-70.35 323.794-183.937 433.138-9.322 8.477-23.733 5.932-29.664-4.235 0 0 0 0 0-0.845-4.235-7.63-2.543-16.954 3.389-22.888 105.956-101.714 172.065-245.811 172.065-405.165zM216.137 16.989c0 0.845 0 0.845 0 0 4.235 7.63 2.543 16.954-3.389 22.888-107.647 102.56-174.608 247.508-174.608 408.554 0 159.352 66.115 302.605 172.065 406.009 5.932 5.932 7.63 15.255 3.389 22.888 0 0 0 0 0 0.845-5.932 11.020-20.343 13.564-29.664 4.235-113.58-109.346-183.937-263.611-183.937-433.138 0-171.219 72.049-325.484 186.474-435.684 9.322-9.322 23.733-6.779 29.664 3.389zM971.37 448.427c0-102.56-42.384-194.952-109.346-261.066-8.477-8.477-7.63-22.042 2.543-28.819 0 0 0 0 0 0 7.63-5.087 17.799-4.235 24.578 1.699 74.592 73.74 121.211 175.462 121.211 288.196 0 111.038-44.928 211.059-116.97 283.955-6.779 6.779-16.954 7.63-24.578 1.699 0 0 0 0 0 0-9.322-6.779-10.175-20.343-2.543-27.974 64.418-66.115 105.103-156.809 105.103-257.677zM343.282 157.696c0 0.845 0 0.845 0 0 10.175 6.779 11.020 21.189 2.543 28.819-67.807 66.962-109.346 159.352-109.346 261.066 0 100.023 40.686 191.562 105.956 257.677 8.477 8.477 6.779 21.189-2.543 27.974 0 0 0 0 0 0-7.63 5.932-17.799 4.235-24.578-1.699-72.049-72.894-116.97-173.763-116.97-283.955 0-112.734 46.618-215.294 121.211-288.196 5.932-5.932 16.107-6.779 23.733-1.699z" />
<glyph unicode="&#xe922;" glyph-name="Menu_ViewDesktop" d="M765.44 621.787v-419.343h-709.632v419.343h709.632zM765.44 671.188h-709.632c-0.084 0.001-0.184 0.001-0.284 0.001-27.487 0-49.836-21.998-50.403-49.349l-0.001-419.396c0.514-27.393 22.842-49.402 50.31-49.402 0.133 0 0.266 0.001 0.399 0.002h709.612c0.179-0.002 0.391-0.004 0.603-0.004 27.456 0 49.769 22.018 50.246 49.36l0.001 419.387c-0.532 27.397-22.867 49.403-50.341 49.403-0.179 0-0.357-0.001-0.535-0.003h0.027zM436.049 153.044v-74.181h126.8c13.597 0 24.62-11.023 24.62-24.62s-11.023-24.62-24.62-24.62h-304.289c-13.597 0-24.62 11.023-24.62 24.62s11.023 24.62 24.62 24.62h126.8v74.181h50.688zM914.447 866.377h-196.315c-0.193 0.001-0.42 0.002-0.648 0.002-57.072 0-103.401-45.993-103.946-102.936v-92.255h51.975v92.204c0.2 28.66 23.479 51.816 52.167 51.816 0.159 0 0.318-0.001 0.476-0.002h196.291c0.106 0.001 0.231 0.001 0.356 0.001 28.707 0 52.009-23.144 52.263-51.791v-630.808c-0.246-28.758-23.615-51.976-52.408-51.976-0.074 0-0.148 0-0.222 0h-196.304c-0.096-0.001-0.209-0.001-0.323-0.001-28.77 0-52.114 23.232-52.296 51.959v20.453h-51.975v-20.436c0.545-56.995 46.875-102.987 103.946-102.987 0.228 0 0.456 0.001 0.683 0.002h196.28c0.187-0.001 0.409-0.002 0.631-0.002 57.043 0 103.339 46.010 103.802 102.943v630.828c-0.464 56.977-46.76 102.987-103.803 102.987-0.222 0-0.443-0.001-0.665-0.002z" />
<glyph unicode="&#xe923;" glyph-name="Footer_BackToTop" d="M310.597 537.782c0 9.706 4.853 14.559 9.706 24.265l194.123 189.27 194.123-189.27c9.706-14.559 9.706-33.972 0-43.678-14.559-9.706-33.972-9.706-43.678 0l-150.445 150.445-150.445-155.299c-9.706-14.559-33.972-14.559-43.678 0 0 0 0 0 0 0-9.706 4.853-9.706 14.559-9.706 24.265zM480.455 76.739v601.782c0 19.412 14.559 33.972 33.972 33.972s33.972-14.559 33.972-33.972v-601.782c0-19.412-14.559-33.972-33.972-33.972s-33.972 14.559-33.972 33.972zM0 790.142c0 33.972 29.118 63.090 63.090 63.090h897.82c33.972 0 63.090-29.118 63.090-63.090h-1024z" />
<glyph unicode="&#xe924;" glyph-name="Footer_Gay" d="M1000 730.933c-4.889 5.067-11.644 7.911-18.667 7.733l-8.444-0.178c-2.933 0-65.244 0.178-185.422 0.622 0 0 0.533 185.778 0.711 191.378v0.089c0.178 7.822-2.044 14.222-6.489 18.756-4.889 5.067-11.733 7.911-18.667 7.733 0 0-67.467 0-176.978 0.356l-46.667 0.178c-14.133-0.356-25.867-12.356-26.222-26.844v-13.244l0.089-0.533c1.867-15.111 13.6-25.956 28-25.956 0.178 0 0.356 0 0.533 0l136.267-0.356-166.933-172.444c-24.889 20.533-52.622 36.711-82.311 48.178-33.511 12.889-68.8 19.467-104.8 19.467-44.089 0-86.578-9.689-126.311-28.8-38.311-18.4-71.911-44.444-99.911-77.511-52.622-59.467-80.8-136.8-79.378-217.6 1.422-81.156 32.711-157.422 87.911-214.844 25.6-26.667 55.289-48 88-63.467 17.333-8.178 35.289-14.667 53.689-19.289 13.778-50.844 39.911-97.422 76.711-135.644 25.6-26.667 55.289-48 88-63.467 31.644-14.933 65.333-24.089 100.178-27.022h0.178c0.711-0.089 17.689-1.244 23.644-1.244 10.222 0 23.911 1.067 24.444 1.156h0.356c77.156 9.6 140.978 40.089 189.778 90.756 1.156 1.156 2.133 2.311 3.2 3.467 0.533 0.622 1.067 1.244 1.689 1.778 56.533 59.022 87.644 137.333 87.644 220.444 0 72.356-24.267 142.489-68.444 198.311l167.022 172.444-0.622-144.356c-0.089-7.467 2.756-14.667 8-19.822 4.8-4.8 11.111-7.467 17.778-7.289h12.089c14.844 0.356 25.867 10.667 26.133 24.622 0 0 0.622 227.822 0.8 233.422v0.089c0.089 8-2.133 14.311-6.578 18.933zM538.489 496.889c5.689 0 11.378-0.178 16.978-0.622 0.978-9.156 1.511-18.311 1.511-27.556 0-63.378-23.289-126.756-69.689-175.022-44.889-46.578-104.533-72.267-167.822-72.267h-0.089c-5.689 0-11.378 0.178-16.978 0.622-7.733 72.178 15.022 147.289 68.267 202.489 44.8 46.667 104.356 72.356 167.822 72.356v0zM151.822 293.6c-92.622 96.267-92.444 252.978 0.356 349.422 44.889 46.578 104.444 72.267 167.822 72.267h0.089c63.289 0 122.756-25.6 167.467-72.089 21.6-22.489 38.133-48.178 49.689-75.733-42.311-0.711-83.111-10.311-121.333-28.711-38.311-18.4-71.911-44.444-99.911-77.511-52.622-59.467-80.8-136.8-79.378-217.6 0-2.311 0.089-4.533 0.178-6.844-31.556 12.089-60.444 31.289-84.978 56.8zM775.289 250.4c0-63.378-23.2-126.756-69.689-175.022-44.889-46.578-104.533-72.267-167.822-72.267h-0.089c-63.2 0-122.667 25.6-167.378 72.089-23.111 24-40.356 51.733-51.911 81.333l24.356-0.089c71.733 5.778 139.289 38.044 190.133 90.844 1.156 1.156 2.222 2.311 3.2 3.467 0.533 0.622 1.067 1.244 1.6 1.778 56.533 59.022 87.733 137.333 87.733 220.444 0 2.311 0 4.533-0.089 6.844 29.867-12.178 57.333-30.844 80.711-55.111 46.133-48 69.244-111.111 69.244-174.311zM729.422 499.822c-24.889 20.533-52.622 36.711-82.311 48.178-10.933 4.178-22.044 7.733-33.333 10.578-11.2 40.978-30.489 79.378-56.889 112.8l167.022 172.444-0.622-144.356c-0.178-7.467 2.756-14.667 8-19.911 4.8-4.8 11.111-7.378 17.778-7.289l147.378-0.089-167.022-172.356z" />
<glyph unicode="&#xe925;" glyph-name="Drag_arrow" horiz-adv-x="1028" d="M330.716 123.183c21.235 20.842 47.189 45.616 74.323 71.57 14.943-16.516 31.459-34.212 47.975-52.301 1.18 0.786 2.753 1.573 3.932 2.359 0 81.794 0 163.982 0 247.349-81.794 0-163.982 0-246.955 0 17.696-16.516 34.998-32.639 53.481-49.548-29.886-27.92-55.84-52.301-82.187-77.469-58.593 60.166-119.939 122.298-180.891 184.823 60.166 58.986 122.691 120.332 184.037 180.891 23.201-23.201 48.369-48.369 75.502-75.502-16.909-14.943-34.998-30.673-52.694-46.796 0.786-1.573 1.966-3.146 2.753-4.719 81.794 0 163.982 0 247.349 0 0 81.794 0 163.982 0 246.562-1.18 0.786-2.359 1.573-3.146 2.753-16.123-18.482-31.853-36.571-47.582-54.267-28.313 28.313-53.481 53.088-77.469 77.469 60.952 61.739 122.691 123.478 182.857 183.644 60.952-59.773 123.871-120.725 185.217-180.891-24.774-26.347-49.155-51.908-75.896-79.435-16.909 18.482-33.032 36.178-48.762 53.481-1.18-0.786-2.359-1.573-3.539-2.359 0-82.187 0-163.982 0-246.955 82.581 0 164.768 0 249.708 0-19.662 18.089-37.358 34.605-54.661 50.728 28.313 28.707 53.481 54.267 75.896 76.682 62.525-60.166 125.444-120.725 187.576-180.891-62.919-63.312-124.657-125.051-185.217-186.003-24.774 24.774-50.335 49.548-76.289 75.502 16.516 16.909 33.425 33.819 51.908 52.301-84.154 0-165.948 0-248.528 0 0-82.187 0-163.982 0-243.023 15.336 15.336 32.246 31.853 49.155 48.762 27.527-28.707 51.908-54.661 76.289-80.221-58.593-58.2-120.725-119.545-183.644-181.677-58.593 60.559-119.545 123.871-180.498 187.183z" />
<glyph unicode="&#xe926;" glyph-name="Menu_Notification" horiz-adv-x="884" d="M828.304 250.018c-36.834 46.042-87.48 105.897-87.48 170.356v207.19c0 174.96-128.918 322.295-299.274 322.295s-299.274-142.731-299.274-322.295v-207.19c0-64.459-55.251-124.314-87.48-170.356-32.23-41.438-55.251-73.668-41.438-105.897 13.813-27.625 50.647-32.23 82.875-32.23h179.565c0-92.084 73.668-165.752 165.752-165.752s165.752 73.668 165.752 165.752h184.169c18.417 0 64.459 0 78.271 32.23 13.813 36.834-9.208 64.459-41.438 105.897zM542.843 111.892c0-55.251-46.042-101.292-101.292-101.292s-101.292 46.042-101.292 101.292h202.586c0 0 0 0 0 0zM791.471 180.956h-695.236c-4.604 0-9.208 0-13.813 0 4.604 9.208 13.813 23.021 23.021 32.23 36.834 50.647 101.292 124.314 101.292 211.794v202.586c0 138.126 101.292 253.232 230.21 253.232 133.522 0 234.815-115.105 234.815-253.232v-207.19c0-87.48 59.855-161.148 101.292-216.399 9.208-9.208 13.813-18.417 23.021-27.625 0 4.604 0 4.604-4.604 4.604z" />
<glyph unicode="&#xe927;" glyph-name="Check_mark" horiz-adv-x="1031" d="M1031.007 721.115l-95.591 95.591-546.231-546.231-293.6 300.426-95.591-102.418 389.189-389.189 6.828 6.828z" />
<glyph unicode="&#xe928;" glyph-name="Close_X" d="M572.043 446.908l434.491 432.308c17.467 17.467 17.467 45.85-2.183 63.317-17.467 17.467-43.667 17.467-61.134 0l-432.308-434.491-432.308 432.308c-17.467 17.467-43.667 17.467-61.134 0s-17.467-43.667 0-61.134l432.308-432.308-432.308-432.308c-17.467-17.467-17.467-43.667 0-61.134s43.667-17.467 61.134 0l432.308 432.308 432.308-432.308c17.467-17.467 43.667-17.467 61.134 0s17.467 43.667 0 61.134l-432.308 432.308z" />
<glyph unicode="&#xe929;" glyph-name="Circle_Plus" d="M736 480h-192v192c0 17.6-14.4 32-32 32s-32-14.4-32-32v-192h-192c-17.6 0-32-14.4-32-32s14.4-32 32-32h192v-192c0-17.6 14.4-32 32-32s32 14.4 32 32v192h192c17.6 0 32 14.4 32 32s-14.4 32-32 32zM512 960c-283.2 0-512-228.8-512-512s228.8-512 512-512 512 228.8 512 512-228.8 512-512 512zM513.6-1.6c-248 0-448 200-449.6 448 0 0 0 0 0 1.6 0 248 200 448 448 448s448-200 449.6-448c0-248-201.6-448-448-449.6z" />
<glyph unicode="&#xe92a;" glyph-name="Delete" horiz-adv-x="832" d="M800.349 800.25h-225.248v87.863c0 0 0 0 0 0 0 39.938-33.548 71.888-73.485 71.888h-170.933c0 0 0 0 0 0-39.938 0-73.485-31.95-73.485-71.888v-87.863h-225.248c-17.573 0-31.95-14.378-31.95-31.95s14.378-31.95 31.95-31.95h43.133l73.485-738.047c3.195-35.145 31.95-60.705 67.095-62.303h397.778c35.145 0 63.9 27.158 67.095 60.705l76.68 739.644h44.73c17.573 0 31.95 14.378 31.95 31.95-1.598 17.573-15.975 31.95-33.548 31.95zM321.098 888.112c0 4.793 4.793 9.585 9.585 9.585h170.933c4.793 0 9.585-4.793 9.585-9.585v-87.863h-190.103v87.863zM618.234 3.095c0-1.598-1.598-3.195-3.195-3.195h-397.778c-1.598 0-3.195 1.598-3.195 3.195l-73.485 733.254h552.736l-75.083-733.254z" />
<glyph unicode="&#xe92b;" glyph-name="Download" horiz-adv-x="1040" d="M960 320v-280c0 0 0 0 0 0 0-20.8-17.6-38.4-38.4-38.4l-819.2-1.6c-20.8 0-38.4 17.6-38.4 38.4v281.6h-64v-320c0-35.2 28.8-64 64-64h896c35.2 0 64 28.8 64 64v320h-64zM512 193.6l193.6 188.8c12.8 12.8 12.8 32 0 44.8s-32 12.8-44.8 0c0 0 0 0 0 0l-116.8-115.2v616c0 17.6-14.4 32-32 32s-32-14.4-32-32v-617.6l-118.4 118.4c-12.8 12.8-32 12.8-44.8 0 0 0 0 0 0 0-6.4-6.4-9.6-14.4-9.6-22.4s3.2-16 9.6-22.4l195.2-190.4z" />
<glyph unicode="&#xe92c;" glyph-name="Dropdown_Triangle" horiz-adv-x="1150" d="M-0.004 735.81l575.43-575.621 574.578 575.621h-1150.009z" />
<glyph unicode="&#xe92d;" glyph-name="Edit" horiz-adv-x="1022" d="M963.295 908.88c-30.353 31.95-70.29 49.523-115.020 49.523-46.328-1.598-91.058-20.768-123.008-54.315-17.573-15.975-631.014-631.014-631.014-631.014-4.793-4.793-6.39-9.585-7.988-14.378-14.378-51.12-83.070-277.966-84.668-281.161-3.195-11.183 0-23.963 7.988-33.548 6.39-4.793 14.378-7.988 22.365-7.988 3.195 0 6.39 0 9.585 1.598 1.598 0 236.431 76.68 274.771 87.863 4.793 1.598 9.585 4.793 12.78 7.988 23.963 23.963 597.466 591.076 635.807 629.417 39.938 39.938 59.108 83.070 57.51 126.203 1.598 41.535-19.17 83.070-59.108 119.813zM715.682 803.445c36.743-9.585 68.693-28.755 94.253-55.913s44.73-59.108 52.718-95.85c-126.203-124.605-415.351-412.156-528.774-523.981-28.755 65.498-81.473 118.215-148.568 145.373 110.228 110.228 405.766 405.766 530.371 530.371zM140.58 218.758c35.145-9.585 67.095-28.755 91.058-55.913 22.365-22.365 38.34-49.523 47.925-79.875-44.73-14.378-142.178-47.925-202.883-67.095 19.17 59.108 49.523 153.36 63.9 202.883zM920.162 709.192c-1.598-1.598-3.195-3.195-6.39-6.39-27.158 68.693-79.875 123.008-146.97 151.763 3.195 3.195 4.793 4.793 4.793 4.793 20.768 20.768 49.523 33.548 78.278 35.145 27.158-1.598 51.12-12.78 70.29-31.95 27.158-25.56 39.938-51.12 39.938-75.083s-12.78-51.12-39.938-78.278z" />
<glyph unicode="&#xe92e;" glyph-name="Favorite_Add" horiz-adv-x="1022" d="M676.654 384.354h41.228c5.669 0 10.307-4.638 10.307-10.307v-258.706c0-5.669-4.638-10.307-10.307-10.307h-41.228c-5.669 0-10.307 4.638-10.307 10.307v258.706c0 5.669 4.638 10.307 10.307 10.307zM568.431 275.616h258.19c5.669 0 10.307-4.123 10.307-9.792 0 0 0-0.515 0-0.515v-41.743c0-5.669-4.123-10.307-9.792-10.307 0 0-0.515 0-0.515 0h-258.19c-5.669 0-10.307 4.638-10.307 10.307v41.743c0 5.669 4.638 10.307 10.307 10.307zM697.784-64c-86.579 0-168.004 33.498-229.331 94.824s-95.34 142.752-95.34 229.331c0 178.826 145.844 324.67 324.155 324.67v0c0 0 0 0 0 0 178.826 0 324.155-145.329 324.67-324.155 0.515-179.342-144.813-324.67-324.155-324.67 0 0 0 0 0 0zM697.784 525.56c-145.844 0-264.89-119.046-265.405-265.405 0-71.118 27.829-137.598 77.818-187.587s116.469-77.818 187.587-77.818c0 0 0 0 0 0 146.359 0 265.405 119.046 265.405 265.405s-119.046 265.405-265.405 265.405c0 0 0 0 0 0v0zM321.578 260.155c0 14.43 1.031 28.344 2.577 42.259-85.548 94.824-177.28 196.348-195.318 214.386-89.156 88.64-89.156 232.938-0.515 321.578 0 0 0.515 0.515 0.515 0.515 42.259 41.743 91.217 58.75 150.482 58.75 30.406 0 85.548-14.43 174.704-102.555l44.32-43.805 43.805 44.32c61.842 62.873 127.807 102.039 172.127 102.039 59.781 0 106.677-20.614 152.544-65.965 71.118-70.603 85.548-176.25 43.805-261.282 17.522-11.853 34.013-25.252 48.958-40.197 60.811 110.285 44.32 251.491-48.958 344.769 0 0 0 0 0 0-57.204 57.204-120.592 85.033-197.379 85.033-73.18 0-155.12-58.75-216.447-120.592-62.357 61.842-141.721 120.076-217.478 120.076-74.21 0-139.66-22.16-194.287-76.787-113.377-112.862-113.377-296.326-0.515-409.703 0 0 0.515-0.515 0.515-0.515 20.099-20.099 145.844-159.243 240.153-263.859-2.061 17.007-3.607 34.013-3.607 51.535z" />
<glyph unicode="&#xe92f;" glyph-name="Favorite_Remove" horiz-adv-x="1022" d="M568.201 276.302h258.32c5.672 0 10.312-4.125 10.312-9.797v-42.28c0-5.672-4.125-10.312-9.797-10.312h-258.836c-5.672 0-10.312 4.64-10.312 10.312v41.764c0 5.672 4.64 10.312 10.312 10.312zM697.619-64c-86.622 0-168.089 33.515-229.446 94.872s-95.388 142.824-95.388 229.446c0 178.916 145.917 324.834 324.318 324.834v0 0c178.916 0 324.318-145.402 324.834-324.318s-144.886-324.318-324.318-324.834v0zM697.619 526.373c-145.917 0-265.023-119.106-265.539-265.539 0-71.154 27.843-137.668 77.857-187.682s116.528-77.857 187.682-77.857v0c146.433 0 265.539 119.106 265.539 265.539s-119.106 265.539-265.539 265.539v0 0zM321.225 260.834c0 14.437 1.031 28.359 2.578 42.28-85.591 94.872-177.885 196.447-195.416 213.978-89.2 88.685-89.2 233.055-0.516 322.256l0.516 0.516c42.28 41.764 91.263 58.779 150.558 58.779 30.421 0 85.591-14.437 174.792-102.606l44.342-43.827 43.827 44.342c61.873 62.904 127.871 102.091 172.213 102.091 59.811 0 106.731-20.624 152.62-65.998 71.154-70.638 85.591-176.338 43.827-261.414 17.531-11.859 34.030-25.265 48.983-40.218 60.842 110.34 44.342 251.617-48.983 344.943v0c-56.201 56.201-119.621 84.044-196.447 84.044-73.217 0-155.198-58.779-216.556-120.653-62.904 61.873-142.308 120.137-218.103 120.137-74.248 0-139.73-22.171-194.385-76.826-113.434-112.918-113.434-296.475-0.516-409.909l0.516-0.516c20.109-20.109 145.917-159.323 240.274-263.992-2.578 18.046-3.609 35.061-4.125 52.592z" />
<glyph unicode="&#xe930;" glyph-name="Flag" horiz-adv-x="895" d="M615.039 864.15c-159.75 0-202.883 95.85-404.168 95.85-130.995 0-210.871-99.045-210.871-99.045v-317.903c0 0 0 0 0 0v-575.101c0-17.573 14.378-31.95 31.95-31.95s31.95 14.378 31.95 31.95v407.363c41.535 25.56 89.46 41.535 138.983 41.535 201.285 0 260.393-95.85 420.144-95.85 99.045 1.598 193.298 35.145 271.576 95.85v543.151c-81.473-60.705-178.92-92.655-279.563-95.85zM830.702 448.799c-62.303-39.938-134.19-62.303-207.676-63.9-62.303 0-105.435 17.573-159.75 38.34-81.473 38.34-170.933 57.51-260.393 57.51-47.925 0-95.85-11.183-138.983-31.95v386.596c39.938 36.743 92.655 59.108 146.97 60.705 0 0 0 0 0 0v0c0 0 0 0 0 0 70.29 0 140.58-15.975 202.883-46.328 55.913-23.963 113.423-49.523 201.285-49.523 75.083 0 148.568 17.573 215.663 47.925v-399.376z" />
<glyph unicode="&#xe931;" glyph-name="Left_Right_Square_End_Arrow" horiz-adv-x="634" d="M4.392 838.274l387.943-388.236-392.091-392.506 120.531-121.58 513.354 514.086-120.775 121.141-388.675 389.066z" />
<glyph unicode="&#xe932;" glyph-name="Like_Thumbs_Down" horiz-adv-x="1026" d="M0 548.8c3.2-30.4 17.6-57.6 41.6-76.8-6.4-20.8-9.6-44.8-9.6-67.2 1.6-68.8 54.4-115.2 132.8-115.2 57.6 0 176 1.6 241.6 1.6-19.2-78.4-40-225.6 1.6-292.8 20.8-35.2 57.6-57.6 97.6-60.8 64 0 67.2 27.2 84.8 68.8 100.8 241.6 251.2 379.2 358.4 379.2 11.2 0 20.8 6.4 27.2 14.4 3.2 3.2 49.6 72 49.6 224 0 153.6-65.6 249.6-68.8 252.8-6.4 8-16 11.2-24 11.2-131.2 8-168 19.2-187.2 33.6-36.8 27.2-38.4 38.4-329.6 38.4-185.6 0-300.8-32-318.4-110.4-3.2-19.2-3.2-40-1.6-59.2-24-16-62.4-48-64-97.6 0-17.6 4.8-33.6 11.2-49.6-16-17.6-44.8-51.2-43.2-94.4zM915.2 824c32-62.4 48-131.2 46.4-200 1.6-60.8-9.6-120-32-176-20.8-1.6-43.2-8-64-17.6v396.8c14.4 0 32-1.6 49.6-3.2v0zM104 611.2c14.4 9.6 17.6 28.8 8 44.8-9.6 9.6-16 22.4-14.4 36.8 1.6 35.2 65.6 59.2 65.6 59.2 16 8 22.4 25.6 16 41.6 0 0-24 22.4-19.2 44.8 12.8 56 172.8 59.2 256 59.2 268.8 0 265.6-8 291.2-27.2 19.2-14.4 49.6-25.6 94.4-33.6v-440c-97.6-65.6-195.2-190.4-268.8-366.4-12.8-25.6-22.4-28.8-27.2-28.8-32 0-33.6 14.4-43.2 28.8-28.8 48-11.2 188.8 19.2 280 3.2 9.6 3.2 20.8-3.2 30.4s-16 14.4-27.2 14.4c0 0-208-1.6-288-1.6-11.2 0-67.2 1.6-68.8 52.8 1.6 17.6 6.4 35.2 16 49.6 1.6 1.6 1.6 1.6 1.6 3.2 8 16 3.2 35.2-12.8 43.2-1.6 0-36.8 19.2-38.4 46.4 1.6 36.8 43.2 60.8 43.2 62.4z" />
<glyph unicode="&#xe933;" glyph-name="Like_Thumbs_Up" horiz-adv-x="1026" d="M1025.6 348.8c-3.2 30.4-17.6 57.6-41.6 76.8 6.4 20.8 9.6 44.8 9.6 67.2-1.6 68.8-54.4 115.2-132.8 115.2-57.6 0-176-1.6-241.6-1.6 19.2 78.4 40 225.6-1.6 292.8-20.8 35.2-57.6 57.6-97.6 60.8-64 0-67.2-27.2-84.8-68.8-100.8-241.6-251.2-379.2-358.4-379.2-11.2 0-20.8-6.4-27.2-14.4-3.2-3.2-49.6-72-49.6-224 0-153.6 65.6-249.6 68.8-252.8 6.4-8 16-11.2 24-11.2 131.2-8 168-19.2 187.2-33.6 36.8-27.2 38.4-38.4 329.6-38.4 185.6 0 300.8 32 318.4 110.4 3.2 19.2 3.2 40 1.6 59.2 24 16 62.4 48 64 97.6 0 17.6-4.8 33.6-11.2 49.6 16 17.6 44.8 51.2 43.2 94.4zM110.4 73.6c-32 62.4-48 131.2-46.4 200-1.6 60.8 9.6 120 32 176 20.8 1.6 43.2 8 64 17.6v-396.8c-14.4 0-32 1.6-49.6 3.2v0zM921.6 286.4c-14.4-9.6-17.6-28.8-8-44.8 9.6-9.6 16-22.4 14.4-36.8-1.6-35.2-65.6-59.2-65.6-59.2-16-8-22.4-25.6-16-41.6 0 0 24-22.4 19.2-44.8-12.8-56-172.8-59.2-256-59.2-268.8 0-265.6 8-291.2 27.2-19.2 14.4-49.6 25.6-94.4 33.6v440c97.6 65.6 195.2 190.4 268.8 366.4 12.8 25.6 22.4 28.8 27.2 28.8 32 0 33.6-14.4 43.2-28.8 28.8-48 11.2-188.8-19.2-280-3.2-9.6-3.2-20.8 3.2-30.4s16-14.4 27.2-14.4c0 0 208 1.6 288 1.6 11.2 0 67.2-1.6 68.8-52.8-1.6-17.6-6.4-35.2-16-49.6-1.6-1.6-1.6-1.6-1.6-3.2-8-16-3.2-35.2 12.8-43.2 1.6 0 36.8-19.2 38.4-46.4-1.6-36.8-43.2-60.8-43.2-62.4z" />
<glyph unicode="&#xe934;" glyph-name="Playlist" horiz-adv-x="1022" d="M216.884 929.017h743.601c17.041 0 30.983-13.943 30.983-30.983v0c0-17.041-13.943-30.983-30.983-30.983h-743.601c-17.041 0-30.983 13.943-30.983 30.983v0c0 17.041 13.943 30.983 30.983 30.983zM216.884 634.675h743.601c17.041 0 30.983-13.943 30.983-30.983v0c0-17.041-13.943-30.983-30.983-30.983h-743.601c-17.041 0-30.983 13.943-30.983 30.983v0c0 17.041 13.943 30.983 30.983 30.983zM216.884 355.825h154.917c17.041 0 30.983-13.943 30.983-30.983v0c0-17.041-13.943-30.983-30.983-30.983h-154.917c-17.041 0-30.983 13.943-30.983 30.983v0c0 17.041 13.943 30.983 30.983 30.983zM216.884 61.483h154.917c17.041 0 30.983-13.943 30.983-30.983v0c0-17.041-13.943-30.983-30.983-30.983h-154.917c-17.041 0-30.983 13.943-30.983 30.983v0c0 17.041 13.943 30.983 30.983 30.983zM46.475 960h30.983c26.336 0 46.475-20.139 46.475-46.475v-30.983c0-26.336-20.139-46.475-46.475-46.475h-30.983c-26.336 0-46.475 20.139-46.475 46.475v30.983c0 26.336 20.139 46.475 46.475 46.475zM46.475 665.658h30.983c26.336 0 46.475-20.139 46.475-46.475v-30.983c0-26.336-20.139-46.475-46.475-46.475h-30.983c-26.336 0-46.475 20.139-46.475 46.475v30.983c0 26.336 20.139 46.475 46.475 46.475zM46.475 386.808h30.983c26.336 0 46.475-20.139 46.475-46.475v-30.983c0-26.336-20.139-46.475-46.475-46.475h-30.983c-26.336 0-46.475 20.139-46.475 46.475v30.983c0 26.336 20.139 46.475 46.475 46.475zM46.475 92.466h30.983c26.336 0 46.475-20.139 46.475-46.475v-30.983c0-26.336-20.139-46.475-46.475-46.475h-30.983c-26.336 0-46.475 20.139-46.475 46.475v30.983c0 26.336 20.139 46.475 46.475 46.475zM560.799-64c-10.844 0-21.688 3.098-30.983 7.746-20.139 10.844-34.082 32.533-34.082 57.319v474.045c0 23.238 12.393 44.926 34.082 57.319 9.295 4.648 20.139 7.746 30.983 7.746 0 0 0 0 0 0 12.393 0 23.238-3.098 34.082-9.295l396.587-237.023c9.295-6.197 17.041-12.393 21.688-21.688 18.59-30.983 9.295-69.713-21.688-88.303l-396.587-238.572c-9.295-6.197-21.688-9.295-34.082-9.295zM562.348 478.209c0 0-1.549 0-1.549 0-1.549 0-1.549-1.549-1.549-3.098v-474.045c0-1.549 0-1.549 1.549-3.098 1.549 0 3.098 0 3.098 0l396.587 237.023c1.549 0 1.549 3.098 1.549 3.098l-398.136 240.121c-1.549 0-1.549 0-1.549 0v0 0z" />
<glyph unicode="&#xe935;" glyph-name="Youtube" horiz-adv-x="1094" d="M547.378 844.087h-0.755s-229.363 0-382.524-11.318c-43.185-0.568-82.015-18.746-109.725-47.666-22.525-31.52-37.971-69.488-43.304-110.63-6.589-55.38-10.549-118.672-11.067-182.785l-0.005-86.185c0.522-64.862 4.483-128.169 11.71-190.477 4.698-34.213 20.144-72.166 43.124-104.375 31.207-28.481 73.514-46.652 120.053-47.418 87.674-8.64 372.114-11.32 372.114-11.32v0s229.741 0.378 382.9 11.77c43.191 0.531 82.034 18.719 109.724 47.664 22.524 31.512 37.97 69.466 43.307 110.594 6.589 55.395 10.55 118.699 11.067 182.826l0.005 86.182c-0.523 64.851-4.483 128.143-11.71 190.44-4.694 34.225-20.14 72.193-43.124 104.413-27.251 28.221-66.081 46.399-109.161 46.965-153.265 11.319-382.628 11.319-382.628 11.319zM432.696 609.064l290.854-155.461-290.854-161.799v317.261z" />
<glyph unicode="&#xe936;" glyph-name="Instagram" horiz-adv-x="1012" d="M897.854-57.524c-261.874 0-523.753 0-785.627 0-1.918 0-3.836 0.962-5.754 0.962-57.553 4.799-106.477 55.635-106.477 113.193 0 260.917 0 521.836 0 782.747 0 61.395 52.76 114.149 114.149 114.149 260.917 0 521.836 0 782.747 0 32.613 0 60.433-13.433 83.456-37.41 19.187-21.105 28.777-46.044 31.655-74.821 0-261.874 0-523.753 0-785.627 0-1.918-0.962-4.799-0.962-6.717-4.799-47.962-39.327-89.21-85.373-101.681-10.552-2.88-19.187-3.836-27.82-4.799zM504.556 61.422c116.067 0 232.14 0 348.21 0 23.023 0 39.327 15.35 39.327 37.41 0 139.091 0 278.187 0 417.277 0 7.672-2.88 9.59-9.59 9.59-22.061 0-43.164 0-65.232 0-10.552 0-10.552 0-7.672-10.552 15.35-70.022 7.672-137.172-23.023-202.402-57.553-118.948-183.216-188.97-314.633-174.581-91.128 10.552-164.991 52.76-218.71 126.62-54.678 74.821-71.941 159.237-51.798 249.403 1.918 9.59 1.918 9.59-7.672 9.59-22.061 0-43.164 0-65.232 0-10.552 0-10.552 0-10.552-10.552 0-137.172 0-273.388 0-410.56 0-27.82 15.35-43.164 43.164-43.164 114.149 1.918 228.301 1.918 343.411 1.918zM311.75 447.998c0-107.432 86.336-192.807 192.807-192.807s192.807 86.336 192.807 194.73c0 106.477-86.336 191.85-193.769 191.85-106.477-0.962-191.85-86.336-191.85-193.769zM700.25 739.617c0-19.187 0-38.372 0-57.553 0-23.023 16.306-39.327 39.327-39.327 37.41 0 74.821 0 112.231 0 23.979 0 39.327 16.306 39.327 40.29 0 37.41 0 74.821 0 112.231 0 23.979-15.35 40.29-40.29 40.29-37.41 0-74.821 0-112.231 0-23.979 0-39.327-15.35-40.29-40.29 1.918-18.225 1.918-36.453 1.918-55.635z" />
<glyph unicode="&#xe937;" glyph-name="Reddit" d="M990.72 386.56c-10.24 25.6-25.6 51.2-43.52 76.8 20.48 15.36 33.28 40.96 33.28 69.12 0 48.64-38.4 87.040-84.48 87.040-33.28 0-61.44-20.48-76.8-48.64-76.8 43.52-174.080 71.68-276.48 76.8 2.56 102.4 17.92 138.24 51.2 166.4 35.84 30.72 81.92 2.56 84.48 2.56 10.24-5.12 20.48-5.12 28.16 0 12.8-46.080 56.32-81.92 107.52-81.92 61.44 0 112.64 51.2 112.64 112.64s-51.2 112.64-112.64 112.64c-48.64 0-89.6-30.72-104.96-74.24 0 0-2.56 2.56-2.56 2.56-2.56 2.56-76.8 48.64-143.36-5.12-53.76-43.52-87.040-99.84-92.16-235.52-99.84-5.12-192-33.28-268.8-76.8-12.8 28.16-40.96 48.64-74.24 48.64-46.080 0-84.48-38.4-84.48-87.040 0-28.16 12.8-53.76 33.28-69.12-17.92-23.040-33.28-48.64-43.52-76.8-12.8-30.72-17.92-61.44-17.92-94.72 0-197.12 222.72-355.84 496.64-355.84s496.64 158.72 496.64 355.84c0 33.28-5.12 64-17.92 94.72zM811.52 906.24c33.28 0 61.44-25.6 61.44-58.88s-28.16-58.88-61.44-58.88c-33.28 0-61.44 25.6-61.44 58.88s25.6 58.88 61.44 58.88zM512 17.92c-232.96 0-419.84 122.88-419.84 271.36 0 33.28 10.24 66.56 28.16 97.28 61.44 102.4 212.48 176.64 391.68 176.64s332.8-74.24 391.68-176.64c17.92-30.72 28.16-61.44 28.16-97.28 0-148.48-189.44-271.36-419.84-271.36zM409.6 376.32c0 2.56 0 7.68 0 10.24-5.12 33.28-33.28 58.88-66.56 58.88s-61.44-25.6-66.56-58.88c0-2.56 0-7.68 0-10.24 0-38.4 30.72-69.12 69.12-69.12 33.28 2.56 64 33.28 64 69.12zM711.68 445.44c-35.84 0-64-25.6-69.12-58.88 0-2.56 0-5.12 0-10.24 0-38.4 30.72-66.56 69.12-66.56s69.12 30.72 69.12 66.56c0 2.56 0 7.68 0 10.24-5.12 33.28-33.28 58.88-69.12 58.88zM668.16 215.040c-94.72-35.84-215.040-35.84-309.76 2.56-20.48 7.68-46.080 0-56.32-20.48s0-43.52 23.040-53.76c58.88-23.040 125.44-35.84 192-35.84 64 0 125.44 10.24 184.32 33.28 20.48 7.68 33.28 30.72 23.040 51.2s-35.84 30.72-56.32 23.040z" />
<glyph unicode="&#xe938;" glyph-name="Snapchat" d="M521.627 929.243c-33.944-0.139-66.78-2.217-99.615-11.499-52.371-14.825-99.615-44.751-133.836-87.146-21.336-26.324-39.763-57.636-47.66-90.61-8.867-36.853-8.728-75.785-7.62-113.47 0.554-19.951 1.801-39.763 3.048-59.714 0.277-4.849 0.554-9.56 0.97-14.409 0.139-3.187 2.494-15.517 0.693-17.734-4.018-4.572-16.764-4.295-22.029-4.018-9.283 0.416-18.565 2.632-27.294 5.542-9.56 3.325-18.704 9.006-28.956 10.114-16.071 1.524-33.805-5.126-44.889-16.764-18.842-19.951-6.927-43.365 12.469-56.943 15.656-10.945 33.667-16.626 51.539-22.445 14.825-4.849 31.173-10.53 42.534-21.752 16.487-16.349 7.343-37.962-1.385-55.973-6.789-13.993-14.686-27.432-23.414-40.317-29.51-43.919-68.858-82.435-117.072-105.157-14.547-6.789-29.788-12.192-45.443-15.794-7.62-1.801-17.041-1.94-23.553-6.512-7.204-5.126-10.114-13.855-8.451-22.306 4.295-21.613 30.203-32.836 48.491-39.624 16.071-5.958 32.836-10.252 49.738-13.855 10.252-2.217 20.505-4.018 30.896-5.68 4.988-0.831 7.343-0.416 9.144-5.403 1.385-3.741 2.355-7.759 3.325-11.638 2.355-9.698 4.156-19.397 6.789-28.818 1.801-6.235 4.018-12.192 9.283-16.349 13.716-10.807 35.329-2.494 50.431 0.277 40.594 7.204 84.652 6.927 121.229-13.993 31.727-18.288 59.16-42.95 92.272-58.744 35.329-16.903 74.261-21.752 113.054-18.15 36.299 3.325 69.135 18.288 99.338 38.1 32.974 21.752 63.177 49.323 103.633 54.726 22.029 3.048 44.335 2.771 66.364-0.277 15.24-2.078 31.035-7.482 46.552-6.096 21.059 1.801 23.276 24.661 26.878 41.287 1.524 6.65 2.078 16.626 6.096 22.306 2.355 3.325 9.006 3.048 13.023 3.741 5.68 0.97 11.222 1.94 16.903 3.048 29.51 5.819 62.069 12.469 87.423 29.649 7.343 4.988 14.27 11.222 18.011 19.535 3.464 7.759 3.464 16.764-1.663 23.692-5.403 7.343-13.301 8.174-21.475 9.837-30.896 6.235-59.991 18.981-86.038 36.715-39.763 27.155-72.044 64.84-96.152 106.404-4.988 8.59-9.56 17.457-13.716 26.601-6.373 13.993-12.192 30.619-2.217 44.474 9.283 12.746 25.908 19.119 40.179 24.246 17.595 6.235 35.329 10.945 51.539 20.643 11.776 6.927 24.246 16.903 27.571 30.896 8.867 36.853-43.781 55.419-71.075 43.781-16.903-7.204-37.408-16.626-56.111-10.391-1.247 0.416-3.325 0.831-4.156 1.663-1.524 1.524-0.693 4.018-0.554 6.373 0.277 5.403 0.693 10.807 0.97 16.21 0.554 8.313 1.108 16.626 1.524 25.077 2.355 39.486 4.156 79.249 0.693 118.596-1.663 17.457-4.295 35.052-9.698 51.817-5.265 16.349-13.439 32.004-22.306 46.69-16.487 27.432-37.546 51.955-62.623 71.629-37.823 29.788-83.682 48.076-131.204 55.142-14.27 1.524-28.264 2.771-42.395 2.771z" />
<glyph unicode="&#xe939;" glyph-name="Twitter" horiz-adv-x="1056" d="M13.034 104.195c0 0 184.693-34.766 306.373 95.606 0 0-143.409 8.691-186.866 147.755 0 0 45.63-8.691 89.087 2.173 0 0-154.273 47.803-162.965 223.805 0 0 45.63-26.074 82.569-23.901 0 0-141.236 110.816-56.494 291.163 0 0 147.755-228.151 432.399-225.978 0 0-28.247 158.619 99.952 232.496s239.015 0 271.607-34.766c0 0 78.223 13.037 128.199 47.803 0 0-8.691-65.186-76.050-110.816 0 0 60.84-6.519 115.162 19.556 0 0-36.939-73.877-108.643-104.297 0 0 84.742-406.324-275.952-582.326-352.003-171.656-647.512 8.691-658.376 21.729z" />
<glyph unicode="&#xe93a;" glyph-name="Autocomplete" d="M1000.937 32.865l-802.595 811.82h701.117c27.675 0 55.352 27.675 55.352 55.352s-27.675 55.352-55.352 55.352l-885.622-9.225-9.225-904.072c0-18.45 9.225-27.675 18.45-36.901s27.675-18.45 36.901-18.45c0 0 0 0 0 0 27.675 0 55.352 27.675 55.352 55.352v728.793l811.82-811.82c18.45-18.45 55.352-18.45 83.027 0 18.45 18.45 18.45 55.352-9.225 73.802z" />
<glyph unicode="&#xe93b;" glyph-name="star" d="M708.384 332l315.616 244h-384l-128 384-128-384h-384l316-243.008-124-396.992 320.512 245.76 319.744-245.76z" />
<glyph unicode="&#xe93c;" glyph-name="Wheel" d="M101.212 757.059c34.082 34.082 66.614 67.13 101.212 101.728 29.951-16.524 61.45-33.049 92.434-51.639 12.91-7.746 23.238-8.778 37.18-1.033 17.557 9.295 36.148 17.557 55.253 22.721 14.458 4.131 20.655 11.877 24.271 25.82 7.746 30.467 17.557 60.418 25.303 91.401 2.582 9.295 6.197 13.426 17.041 13.426 38.729-0.516 77.459-0.516 116.188 0 9.811 0 14.458-2.582 17.041-12.91 8.263-32.532 17.557-64.549 27.885-96.565 2.582-7.746 10.328-14.975 18.074-18.59 18.59-9.295 39.245-13.943 56.803-24.271 16.008-8.778 27.885-7.23 42.344 1.549 25.82 16.008 53.188 29.434 79.007 44.926 8.778 5.164 14.458 4.647 21.172-3.098 26.852-27.885 54.221-55.253 82.106-82.106 7.23-7.23 8.263-12.393 3.098-21.172-17.041-28.918-32.532-58.869-49.058-87.786-5.68-9.295-5.164-17.041-0.516-26.335 10.328-21.688 17.557-44.409 27.885-65.582 3.098-6.197 9.811-13.426 16.524-15.491 32.532-10.328 65.065-20.14 98.114-28.401 10.328-2.582 13.426-7.23 12.91-17.041-0.516-38.729-0.516-77.459 0-116.188 0-10.328-3.614-14.458-13.426-17.041-32.532-8.778-64.549-18.59-96.565-27.368-10.844-2.582-15.491-8.263-19.107-18.59-5.164-17.041-10.328-35.115-20.14-50.089-13.426-20.655-10.328-36.664 2.066-55.77 14.975-23.238 27.885-48.025 40.278-72.811 2.582-4.647 2.582-14.458-0.516-17.557-30.467-31.5-61.45-62.483-93.467-94.5-33.049 18.074-65.065 35.631-96.565 54.221-10.844 6.713-20.14 7.23-32.016 1.033-19.623-9.811-39.762-18.59-60.418-24.787-12.393-4.131-17.557-10.328-20.655-22.205-8.263-30.984-18.074-61.966-25.82-92.95-3.098-11.877-8.778-14.975-20.14-14.458-37.18 0.516-74.876 0.516-112.057 0-10.844 0-15.491 3.098-18.59 13.943-8.263 32.532-17.557 64.549-27.885 96.565-2.066 7.23-9.811 14.458-16.524 17.557-20.655 9.811-42.861 17.041-64.032 27.368-10.328 5.164-18.074 5.68-28.401-0.516-32.016-18.59-65.065-36.664-96.048-53.705-34.598 34.082-67.647 67.647-102.245 101.728 17.557 31.5 36.664 64.549 53.705 98.114 3.098 6.713 3.098 17.041 0.516 24.271-8.263 23.238-17.557 45.442-27.885 67.647-2.582 6.197-9.295 12.393-14.975 14.458-32.532 10.328-65.582 19.623-98.114 28.401-10.844 2.582-14.458 7.23-13.943 18.59 0.516 38.212 0.516 75.909 0 114.122 0 11.361 4.131 15.491 14.458 18.074 32.532 7.746 64.549 17.041 96.565 27.368 6.713 2.066 13.943 9.811 17.041 17.041 10.328 21.688 19.107 43.376 27.368 66.098 2.582 7.23 2.582 17.557-0.516 24.271-17.557 33.049-36.148 66.098-54.221 98.114zM511.226 680.117c-127.032-0.516-231.343-105.344-231.859-232.376 0-127.548 105.86-232.892 232.892-232.376 126.515 0.516 231.859 105.86 231.859 232.376 0 127.548-105.344 233.409-232.892 232.376z" />
<glyph unicode="&#xe93d;" glyph-name="Private" horiz-adv-x="832" d="M704 576h-32v121.6c0 147.2-105.6 262.4-257.6 262.4-150.4 0-254.4-116.8-254.4-262.4v-121.6h-32c-70.4 0-128-57.6-128-128v-384c0-70.4 57.6-128 128-128h576c70.4 0 128 57.6 128 128v384c0 70.4-57.6 128-128 128zM224 697.6c0 108.8 75.2 198.4 190.4 198.4s193.6-86.4 193.6-198.4v-121.6h-384v121.6zM768 64c0-35.2-28.8-64-64-64h-576c-35.2 0-64 28.8-64 64v384c0 35.2 28.8 64 64 64h576c35.2 0 64-28.8 64-64v-384zM416 384c-35.2 0-64-28.8-64-64 0-24 12.8-44.8 32-54.4v-105.6c0-17.6 14.4-32 32-32s32 14.4 32 32v105.6c19.2 11.2 32 32 32 54.4 0 35.2-28.8 64-64 64z" />
<glyph unicode="&#xe93e;" glyph-name="Round_Ended_Arrow_Up_Down" horiz-adv-x="1040" d="M1016.202 711.827c-7.211 4.743-16.053 7.565-25.552 7.565-13.074 0-24.906-5.355-33.407-13.992l-436.998-429.866-437.645 430.47c-8.45 8.653-20.248 14.010-33.296 14.010-9.469 0-18.276-2.839-25.634-7.694-11.17-7.836-18.491-20.826-18.491-35.549 0-12.088 4.947-23.002 12.904-30.857l460.492-452.945c10.742-10.49 25.45-16.984 41.671-16.984s30.928 6.477 41.703 16.984l21.268 20.826 438.531 431.525c8.075 7.859 13.074 18.82 13.074 30.959 0 14.672-7.31 27.626-18.48 35.434z" />
<glyph unicode="&#xe93f;" glyph-name="share" d="M864 256c-52.8 0-99.2-25.6-128-65.6l-422.4 216c3.2 12.8 6.4 27.2 6.4 41.6 0 17.6-3.2 35.2-9.6 52.8l424 206.4c28.8-40 76.8-65.6 129.6-65.6 88 0 160 72 160 160s-72 158.4-160 158.4c-88 0-160-72-160-160 0-12.8 1.6-24 4.8-36.8l-430.4-208c-28.8 32-72 52.8-118.4 52.8-88 0-160-72-160-160s72-160 160-160c51.2 0 96 24 124.8 60.8l422.4-216c-1.6-11.2-3.2-24-3.2-36.8 0-88 72-160 160-160s160 72 160 160-72 160-160 160zM864 896c52.8 0 96-43.2 96-96s-43.2-96-96-96-96 43.2-96 96 43.2 96 96 96zM160 352c-52.8 0-96 43.2-96 96s43.2 96 96 96 96-43.2 96-96-43.2-96-96-96zM864 0c-52.8 0-96 43.2-96 96s43.2 96 96 96 96-43.2 96-96-43.2-96-96-96z" />
<glyph unicode="&#xe940;" glyph-name="Image_Select" d="M424.613 435.3c-85.681-66.725-169.845-132.312-257.801-200.554 8.72 0 12.89 0 17.439 0 64.829 0 129.659 0 194.867 0 16.302 0 29.571-4.929 39.428-18.577 18.956-26.538 1.516-63.692-31.467-66.725-9.478-0.758-18.956-0.379-28.434-0.379-103.879 0-207.378 0-311.257 0-30.709 0-47.39 16.302-47.39 47.011 0 238.087 0 475.415 0 712.743 0 35.637 15.544 51.181 51.181 51.181 307.086 0 614.173 0 921.259 0 35.637 0 51.181-15.544 51.181-51.181 0-166.433 0-332.487 0-498.92 0-23.126-9.099-37.533-27.676-44.736-17.439-6.824-33.742-1.516-49.665 14.407-58.763 59.143-117.906 118.285-176.669 177.049-1.516 1.516-3.412 3.033-5.687 4.549-62.175-48.527-124.351-96.675-186.906-145.582 7.582-6.824 14.407-12.511 21.231-18.577 20.093-18.198 23.126-44.736 6.445-62.934-16.302-18.198-41.703-19.335-62.175-1.516-35.258 30.33-69.758 61.038-105.016 91.747-3.791 3.791-7.961 6.824-12.89 10.994zM511.431 473.591c75.066 58.384 148.615 115.631 222.164 172.878 27.676 21.61 46.632 20.472 70.895-3.791 40.566-40.566 81.131-81.131 121.697-121.697 3.412-3.412 6.824-6.445 11.753-10.615 0 122.835 0 243.015 0 363.954-284.339 0-567.541 0-851.122 0 0-197.9 0-394.663 0-593.321 5.687 4.17 9.857 7.203 14.027 10.615 97.813 76.203 196.004 152.406 293.817 228.609 24.643 18.956 42.84 18.198 65.967-1.896 16.302-15.165 32.983-29.571 50.802-44.736zM597.112-17.368c4.17 32.983 7.961 67.862 13.269 102.362 2.275 15.923-0.379 27.676-12.132 39.428-24.264 24.643-47.011 50.802-70.516 76.203-13.269 14.027-20.472 29.571-13.648 48.906 7.203 19.335 22.747 26.538 41.703 28.813 37.154 4.17 74.307 8.72 111.461 14.027 5.308 0.758 12.132 4.929 15.165 9.857 15.923 25.78 30.33 52.318 45.873 78.478 20.093 33.742 58.005 33.742 78.478 0 15.544-26.159 29.95-52.698 45.873-78.478 3.033-4.549 9.478-9.099 14.786-9.857 38.291-5.308 76.961-9.857 115.631-14.407 17.439-1.896 30.33-10.236 37.154-26.917s3.412-31.846-8.341-44.736c-27.676-29.95-55.73-59.143-84.164-88.335-6.445-6.824-8.72-12.89-7.203-22.368 6.445-35.258 11.374-70.895 17.060-106.532 2.654-17.439-1.896-32.225-15.923-43.22s-29.571-12.132-45.494-4.17c-33.362 17.060-66.725 34.121-99.708 51.56-7.961 4.17-14.407 4.17-21.989-0.379-31.467-17.439-62.934-34.879-95.159-50.802-30.33-15.544-62.555 5.308-62.175 40.566zM890.929 202.521c-18.577 2.275-34.121 5.687-50.044 6.066-26.159 0.758-43.599 12.511-54.593 36.016-4.929 10.615-12.132 20.472-18.956 32.225-8.341-14.027-15.923-25.78-21.989-37.912-9.478-19.714-25.401-28.055-46.252-29.571-18.198-1.516-36.016-4.17-56.868-6.824 14.027-15.165 25.401-29.192 38.291-41.324 18.198-17.060 22.747-36.775 18.198-60.659-2.654-13.648-3.412-27.676-5.308-44.357 16.681 8.72 30.709 15.165 43.599 23.126 19.335 12.132 37.912 12.132 57.247 0.379 14.027-8.341 28.813-14.786 45.873-23.505-3.033 19.335-4.17 36.016-7.961 51.939-4.17 18.956 0.758 34.121 14.407 47.769 14.407 14.407 28.434 29.95 44.357 46.632zM256.284 618.793c-47.011 0-85.302 37.912-85.681 84.164-0.379 47.39 38.291 86.439 85.302 86.439 46.632 0 84.923-37.912 85.302-84.544 0.379-47.39-37.533-85.681-84.923-86.060z" />
<glyph unicode="&#xe941;" glyph-name="Upload_video" d="M650.039 468.413l-249.809 160.293c-7.529 4.852-17.067 5.187-24.931 0.837-7.864-4.183-12.716-12.549-12.716-21.25v-320.586c0-9.035 4.852-17.067 12.716-21.25 3.681-2.008 7.697-3.012 11.712-3.012 4.518 0 9.035 1.339 13.218 3.848l249.809 160.125c7.027 4.518 11.21 12.214 11.21 20.413 0 8.366-4.183 16.23-11.21 20.58v0zM411.273 332.214v231.404l180.371-115.618-180.371-115.786zM970.625 853.25v-810.499h-917.25v810.499h917.25zM981.333 906.625h-938.667c-23.425 0-42.667-19.242-42.667-42.667v-831.916c0-23.425 19.242-42.667 42.667-42.667h938.499c23.425 0 42.667 19.242 42.667 42.667v831.916c0.167 23.425-19.075 42.667-42.499 42.667v0z" />
</font>
</defs>
</svg>
